<svg xmlns="http://www.w3.org/2000/svg" xmlns:xlink="http://www.w3.org/1999/xlink" viewBox="0 0 476.2 110.04"><defs><style>.cls-1{fill:#fff;}.cls-2{fill:none;stroke-miterlimit:10;stroke-width:4px;stroke:url(#Box_Blue_Grad);}</style><linearGradient id="Box_Blue_Grad" y1="77.11" x2="476.2" y2="77.11" gradientUnits="userSpaceOnUse"><stop offset="0.12" stop-color="#33bfff"/><stop offset="0.55" stop-color="#3a89e8"/><stop offset="0.92" stop-color="#2a6ac6"/></linearGradient></defs><g id="Layer_2" data-name="Layer 2"><g id="Layer_3" data-name="Layer 3"><path class="cls-1" d="M347.86,5.22h2.88l6.63,19.68h-2.7l-3.39-11c-.69-2.19-1.35-4.35-1.95-6.63h-.12c-.63,2.28-1.26,4.44-1.95,6.63l-3.45,11h-2.58Zm-3.12,11.67h9v2h-9Z" transform="translate(-335 -4.86)"/><path class="cls-1" d="M361.27,5.22h5.58c4,0,6.75,1.35,6.75,4.8a4.28,4.28,0,0,1-3.45,4.29v.12c2.88.45,4.56,2,4.56,4.71,0,3.87-3,5.76-7.41,5.76h-6Zm5.16,8.28c3.36,0,4.71-1.08,4.71-3.27s-1.56-2.91-4.59-2.91h-2.79V13.5Zm.51,9.3c3.36,0,5.31-1.11,5.31-3.78,0-2.43-1.86-3.42-5.31-3.42h-3.18v7.2Z" transform="translate(-335 -4.86)"/><path class="cls-1" d="M377.74,15c0-6.36,3.12-10.11,7.56-10.11s7.56,3.75,7.56,10.11-3.12,10.29-7.56,10.29S377.74,21.42,377.74,15Zm12.51,0c0-5-2-7.89-4.95-7.89S380.35,10,380.35,15s2,8.07,4.95,8.07S390.25,20,390.25,15Z" transform="translate(-335 -4.86)"/><path class="cls-1" d="M396.67,17.46V5.22h2.55v12.3c0,4.05,1.77,5.52,4.11,5.52s4.17-1.47,4.17-5.52V5.22h2.43V17.46c0,5.64-2.76,7.8-6.6,7.8S396.67,23.1,396.67,17.46Z" transform="translate(-335 -4.86)"/><path class="cls-1" d="M420,7.35h-6.51V5.22h15.54V7.35h-6.51V24.9H420Z" transform="translate(-335 -4.86)"/><path class="cls-1" d="M615,75.26h6.51V54.71H615V51.87h16.39v2.84h-6.52V75.26h6.52V78.1H615Z" transform="translate(-335 -4.86)"/><path class="cls-1" d="M639.74,51.87H656v2.84H643.1v8.2H654v2.83H643.1v9.52h13.27V78.1H639.74Z" transform="translate(-335 -4.86)"/><path class="cls-1" d="M663.74,51.87H680v2.84H667.1v8.2H678v2.83H667.1v9.52h13.27V78.1H663.74Z" transform="translate(-335 -4.86)"/><path class="cls-1" d="M687.74,51.87H704v2.84H691.1v8.2H702v2.83H691.1v9.52h13.27V78.1H687.74Z" transform="translate(-335 -4.86)"/><path class="cls-1" d="M734.34,68.19V51.87h3.39v16.4c0,5.39,2.37,7.35,5.48,7.35s5.56-2,5.56-7.35V51.87H752V68.19c0,7.51-3.68,10.39-8.8,10.39S734.34,75.7,734.34,68.19Z" transform="translate(-335 -4.86)"/><path class="cls-1" d="M757.78,65c0-8.43,4.91-13.59,11.75-13.59a9.83,9.83,0,0,1,7.2,3.2l-1.92,2.12a7,7,0,0,0-5.28-2.36c-5,0-8.27,4-8.27,10.55s3.27,10.72,8.27,10.72a7.56,7.56,0,0,0,5.88-2.88l1.92,2a10.14,10.14,0,0,1-8.12,3.8C762.73,78.58,757.78,73.54,757.78,65Z" transform="translate(-335 -4.86)"/><path class="cls-1" d="M783,75.26h6.51V54.71H783V51.87h16.39v2.84h-6.52V75.26h6.52V78.1H783Z" transform="translate(-335 -4.86)"/><polyline class="cls-2" points="0 46.17 165 46.17 227.86 107.77 476.19 108.04"/></g></g></svg>