<svg xmlns="http://www.w3.org/2000/svg" xmlns:xlink="http://www.w3.org/1999/xlink" viewBox="0 0 412.6 109.97"><defs><style>.cls-1{fill:#fff;}.cls-2{fill:none;stroke-miterlimit:10;stroke-width:4px;stroke:url(#Box_Blue_Grad);}</style><linearGradient id="Box_Blue_Grad" y1="77.07" x2="412.6" y2="77.07" gradientUnits="userSpaceOnUse"><stop offset="0.12" stop-color="#33bfff"/><stop offset="0.55" stop-color="#3a89e8"/><stop offset="0.92" stop-color="#2a6ac6"/></linearGradient></defs><g id="Layer_2" data-name="Layer 2"><g id="Layer_3" data-name="Layer 3"><path class="cls-1" d="M347.86,5.22h2.88l6.63,19.68h-2.7l-3.39-11c-.69-2.19-1.35-4.35-1.95-6.63h-.12c-.63,2.28-1.26,4.44-1.95,6.63l-3.45,11h-2.58Zm-3.12,11.67h9v2h-9Z" transform="translate(-335 -4.86)"/><path class="cls-1" d="M361.27,5.22h5.58c4,0,6.75,1.35,6.75,4.8a4.28,4.28,0,0,1-3.45,4.29v.12c2.88.45,4.56,2,4.56,4.71,0,3.87-3,5.76-7.41,5.76h-6Zm5.16,8.28c3.36,0,4.71-1.08,4.71-3.27s-1.56-2.91-4.59-2.91h-2.79V13.5Zm.51,9.3c3.36,0,5.31-1.11,5.31-3.78,0-2.43-1.86-3.42-5.31-3.42h-3.18v7.2Z" transform="translate(-335 -4.86)"/><path class="cls-1" d="M377.74,15c0-6.36,3.12-10.11,7.56-10.11s7.56,3.75,7.56,10.11-3.12,10.29-7.56,10.29S377.74,21.42,377.74,15Zm12.51,0c0-5-2-7.89-4.95-7.89S380.35,10,380.35,15s2,8.07,4.95,8.07S390.25,20,390.25,15Z" transform="translate(-335 -4.86)"/><path class="cls-1" d="M396.67,17.46V5.22h2.55v12.3c0,4.05,1.77,5.52,4.11,5.52s4.17-1.47,4.17-5.52V5.22h2.43V17.46c0,5.64-2.76,7.8-6.6,7.8S396.67,23.1,396.67,17.46Z" transform="translate(-335 -4.86)"/><path class="cls-1" d="M420,7.35h-6.51V5.22h15.54V7.35h-6.51V24.9H420Z" transform="translate(-335 -4.86)"/><path class="cls-1" d="M614.72,57.2h7.44c5.36,0,9,1.8,9,6.4a5.7,5.7,0,0,1-4.6,5.72v.16c3.84.6,6.08,2.68,6.08,6.28,0,5.16-4,7.68-9.88,7.68h-8Zm6.88,11c4.48,0,6.28-1.44,6.28-4.36S625.8,60,621.76,60H618v8.24Zm.68,12.4c4.48,0,7.08-1.48,7.08-5,0-3.24-2.48-4.56-7.08-4.56H618v9.6Z" transform="translate(-335 -4.86)"/><path class="cls-1" d="M636.68,70.2c0-8.48,4.16-13.48,10.08-13.48s10.08,5,10.08,13.48-4.16,13.72-10.08,13.72S636.68,78.8,636.68,70.2Zm16.68,0c0-6.6-2.64-10.52-6.6-10.52s-6.6,3.92-6.6,10.52S642.8,81,646.76,81,653.36,76.92,653.36,70.2Z" transform="translate(-335 -4.86)"/><path class="cls-1" d="M668.84,57.2h3.84l8.84,26.24h-3.6L673.4,68.8c-.92-2.92-1.8-5.8-2.6-8.84h-.16c-.84,3-1.68,5.92-2.6,8.84l-4.6,14.64H660Zm-4.16,15.56h12v2.72h-12Z" transform="translate(-335 -4.86)"/><path class="cls-1" d="M686.72,57.2h8.2c5.32,0,9.2,1.92,9.2,7.4,0,5.24-3.88,7.76-9.2,7.76h-4.8V83.44h-3.4Zm7.72,12.44c4.08,0,6.32-1.68,6.32-5s-2.24-4.68-6.32-4.68h-4.32v9.72Zm2.44,0,8,13.76h-3.8l-6.84-12Z" transform="translate(-335 -4.86)"/><path class="cls-1" d="M710.24,57.2h6.48c7.88,0,12.16,4.68,12.16,13s-4.28,13.24-12,13.24h-6.64Zm6.24,23.48c6,0,8.92-3.84,8.92-10.48S722.44,60,716.48,60H713.6V80.68Z" transform="translate(-335 -4.86)"/><polyline class="cls-2" points="0 46.17 165 46.17 227.86 107.78 412.6 107.97"/></g></g></svg>