<svg xmlns="http://www.w3.org/2000/svg" viewBox="0 0 183.5 181.36"><defs><style>.cls-1{fill:none;stroke:#fff;stroke-miterlimit:10;}</style></defs><g id="Layer_2" data-name="Layer 2"><g id="Layer_1-2" data-name="Layer 1"><path class="cls-1" d="M92.09.64c2.15,1.87,4.17,3.05,5.38,4.78a301,301,0,0,0,46.15,51.83c11.25,10.09,23.54,19.06,35.54,28.3,4.86,3.74,5.24,8,.36,11.11a273.66,273.66,0,0,0-52.31,44.44c-10.7,11.57-20.36,24.1-30.34,36.32-3.85,4.7-7.7,4.62-11.09-.44a274.43,274.43,0,0,0-32.39-39.13A343.06,343.06,0,0,0,4.17,96.26C-.8,92.81-.7,89,4.33,85.52,31.25,67,54.53,44.64,75.1,19.42,79,14.61,82.57,9.49,86.53,4.7,87.79,3.17,89.81,2.27,92.09.64Zm-.3,22.28c-3.17,1.62-6.32,2.62-8.7,4.55C74,34.81,65,42.15,56.41,50c-11.35,10.45-22,21.58-30.67,34.45-3.57,5.33-3.29,8.64.29,13.87,9.81,14.3,21.73,26.72,34.73,38.09,8.16,7.14,16.82,13.75,25.42,20.37,3.93,3,8.25,2.58,12.34-.08a36.67,36.67,0,0,0,4.83-3.24c12.19-11,24.59-21.84,36.33-33.32,6.26-6.12,11.62-13.21,16.86-20.25,4.87-6.55,4.76-10.11.38-16.22a254.38,254.38,0,0,0-54.46-55.55C99.47,25.91,95.66,24.77,91.79,22.92Zm.46,5.49c2.5,1.32,5.32,2.22,7.39,4,10.34,8.79,21,17.36,30.57,26.9C138.16,67.18,145,76.24,152.07,85c3.94,4.84,4,7.84.22,12.92a252.89,252.89,0,0,1-53.87,53.32c-4.66,3.44-8.29,3.15-12.82-.23A278.62,278.62,0,0,1,32.89,99.62c-5.43-6.91-5.57-9.69-.08-16.72A259.06,259.06,0,0,1,86.65,31.15,39.61,39.61,0,0,1,92.25,28.41ZM81.11,82.1c-4.45-2-8.5-5.48-11.62-4.79-5.42,1.2-10.7,4.42-15.24,7.85s-3.89,8.37.67,11.73a29,29,0,0,0,6.44,3.52c15.4,6.12,31.31,6.85,47.34,3.34a52.47,52.47,0,0,0,15.39-5.94c5.23-3.1,5-7.86.46-11.81-1.12-1-2.32-1.85-3.53-2.81l2.09-1.6-17.74-4.26c.82,2.48,1.41,4.26,2,6s1.62,2.47,3.79,1.88c3.77-1,9.2,1.74,9.88,4.94.89,4.24-2.86,5.24-5.47,6.92a10.25,10.25,0,0,1-2.18.78c-9.25,3.21-18.84,3.65-28.41,2.72a56.22,56.22,0,0,1-15-3.75c-5.61-2.23-5.9-6-.86-9.34C72.3,85.45,76.1,84.32,81.11,82.1ZM92.05,42.2l-1,.11c-3.34,9.63-6.69,19.27-10.06,29l6.1,1.11V99.51h8.44c0-7.07.3-13.53-.08-20-.43-7.16-.7-7.14,6.26-8,.21,0,.4-.28.9-.65C99.12,61.44,95.58,51.82,92.05,42.2Zm-7,93.36c3.28.16,6.44.32,9.61.45,2.73.12,3.58-1.31,3.42-3.86-.41-6.29-.66-12.59-1-18.89-.43-7.08-1.4-7.86-8.6-6.69a3.06,3.06,0,0,0-2,2.06C85.84,117.35,85.47,126.07,85,135.56Z"/></g></g></svg>