<?xml version="1.0" encoding="utf-8"?>
<!-- Generator: Adobe Illustrator 24.2.0, SVG Export Plug-In . SVG Version: 6.00 Build 0)  -->
<svg version="1.1" xmlns="http://www.w3.org/2000/svg" xmlns:xlink="http://www.w3.org/1999/xlink" x="0px" y="0px"
	 viewBox="0 0 1366 768" style="enable-background:new 0 0 1366 768;" xml:space="preserve">
<style type="text/css">
	.st0{fill:none;stroke:#FFFFFF;stroke-miterlimit:10;}
	.st1{display:none;}
	.st2{display:inline;fill:none;stroke:#FFFFFF;stroke-miterlimit:10;}
	.st3{display:inline;}
	.st4{fill:none;stroke:url(#SVGID_1_);stroke-width:2;stroke-miterlimit:10;}
	.st5{fill:none;stroke:url(#SVGID_2_);stroke-width:2;stroke-miterlimit:10;}
	.st6{fill:none;stroke:url(#SVGID_3_);stroke-width:2;stroke-miterlimit:10;}
	.st7{fill:none;stroke:url(#SVGID_4_);stroke-width:2;stroke-miterlimit:10;}
	.st8{fill:none;stroke:url(#SVGID_5_);stroke-width:2;stroke-miterlimit:10;}
	.st9{fill:none;stroke:url(#SVGID_6_);stroke-width:2;stroke-miterlimit:10;}
	.st10{fill:none;stroke:url(#SVGID_7_);stroke-width:2;stroke-miterlimit:10;}
	.st11{fill:none;stroke:url(#SVGID_8_);stroke-width:2;stroke-miterlimit:10;}
	.st12{fill:none;stroke:url(#SVGID_9_);stroke-width:2;stroke-miterlimit:10;}
	.st13{fill:none;stroke:url(#SVGID_10_);stroke-width:2;stroke-miterlimit:10;}
	.st14{fill:none;stroke:url(#SVGID_11_);stroke-width:2;stroke-miterlimit:10;}
	.st15{fill:none;stroke:#FFFFFF;stroke-width:2;stroke-miterlimit:10;}
	.st16{fill:#FFFFFF;stroke:#FFFFFF;stroke-width:4;stroke-miterlimit:10;}
	.st17{fill:#FFFFFF;}
</style>
<g id="Layer_2">
</g>
<g id="Layer_1">
</g>
<g id="Layer_3">
	<g>
		<polyline class="st15" points="198.2,358.6 432,358.6 432,424.3 255.5,422.5 255.5,534.2 623.5,532.3 623.5,481.6 324.9,479.7 		
			"/>
		<polyline class="st15" points="491.1,248.5 491.1,422.3 690.1,422.3 690.1,583.6 955.4,583.6 955.4,522.9 955.4,446.3 
			955.4,312.5 		"/>
		<line class="st15" x1="766.7" y1="517.2" x2="955.4" y2="517.2"/>
		<polyline class="st15" points="558.6,358.3 766.7,358.3 766.7,455.5 		"/>
		<polyline class="st15" points="894.8,367.4 894.8,465.8 833,465.8 833,385.7 833,291.9 558.6,291.9 558.6,184.4 1080,184.4 
			1078.5,393.5 		"/>
		<polyline class="st15" points="623.7,248.5 1018.3,248.5 1018.3,583.6 955.4,583.6 		"/>
		<polyline class="st15" points="1018.3,466.5 1139.5,465.9 1139.5,248.5 		"/>
		<polyline class="st15" points="559.1,185 431,185 431,301.7 		"/>
		<polyline class="st15" points="1078.9,516.9 1196.7,516.9 1196.7,269.9 1258.4,269.9 		"/>
		<polyline class="st15" points="1365.5,516.5 1258.6,516.5 1256.1,184.4 1080,184.4 		"/>
		<line class="st15" x1="1020.5" y1="583.5" x2="1365.5" y2="582.5"/>
		<line class="st15" x1="0.5" y1="184.4" x2="430.5" y2="184.4"/>
		<polyline class="st15" points="126.5,243.5 126.3,482.9 255.5,482.9 		"/>
		<polyline class="st15" points="198.3,301.1 359.6,301.1 359.6,242.8 0.5,242.8 		"/>
		<polyline class="st15" points="126.3,482.9 127.4,583.6 690.1,583.6 		"/>
	</g>
	<g>
		<rect x="64.6" y="199.2" class="st16" width="26.9" height="28.8"/>
		<ellipse class="st16" cx="93" cy="213.7" rx="12.7" ry="14.5"/>
		<path class="st17" d="M76.2,194.4c0,3.2-3.1,3.9-6.9,3.9c-3.9,0-6.9,0.2-7.1-3.9c-0.2-3.5,3.2-3.9,7.1-3.9
			C73.2,190.6,76.2,191,76.2,194.4z"/>
		<path class="st17" d="M98.4,194.4c0,3.2-3.1,3.9-6.9,3.9c-3.9,0-6.9,0.2-7.1-3.9c-0.2-3.5,3.2-3.9,7.1-3.9
			C95.4,190.5,98.4,191,98.4,194.4z"/>
		<path class="st17" d="M100,232.7c0,3.2-3.1,3.9-6.9,3.9s-6.9,0.2-7.1-3.9c-0.2-3.5,3.2-3.9,7.1-3.9S100,229.3,100,232.7z"/>
		<path class="st17" d="M76.4,232.7c0,3.2-3.1,3.9-6.9,3.9s-6.9,0.2-7.1-3.9c-0.2-3.5,3.2-3.9,7.1-3.9S76.4,229.3,76.4,232.7z"/>
	</g>
</g>
</svg>
