<svg xmlns="http://www.w3.org/2000/svg" xmlns:xlink="http://www.w3.org/1999/xlink" viewBox="0 0 772 111.72"><defs><style>.cls-1{fill:#fff;}.cls-2,.cls-3{fill:none;}.cls-3{stroke-miterlimit:10;stroke-width:4px;stroke:url(#Box_Blue_Grad);}</style><linearGradient id="Box_Blue_Grad" y1="77.01" x2="599" y2="77.01" gradientUnits="userSpaceOnUse"><stop offset="0.12" stop-color="#33bfff"/><stop offset="0.55" stop-color="#3a89e8"/><stop offset="0.92" stop-color="#2a6ac6"/></linearGradient></defs><g id="Layer_2" data-name="Layer 2"><g id="Layer_3" data-name="Layer 3"><path class="cls-1" d="M316.36,5.22h5.94c4.35,0,7.29,1.47,7.29,5.79s-3,6.09-7.29,6.09h-3.42v7.8h-2.52ZM322,15.06c3.42,0,5.07-1.26,5.07-4.05S325.39,7.26,322,7.26h-3.12v7.8Z" transform="translate(-314.6 -4.86)"/><path class="cls-1" d="M334.27,5.22h6.15c4,0,6.9,1.44,6.9,5.55,0,3.93-2.91,5.82-6.9,5.82h-3.6V24.9h-2.55Zm5.79,9.33c3.06,0,4.74-1.26,4.74-3.78s-1.68-3.51-4.74-3.51h-3.24v7.29Zm1.83,0,6,10.32H345l-5.13-9Z" transform="translate(-314.6 -4.86)"/><path class="cls-1" d="M350.74,15c0-6.36,3.12-10.11,7.56-10.11s7.56,3.75,7.56,10.11-3.12,10.29-7.56,10.29S350.74,21.42,350.74,15Zm12.51,0c0-5-2-7.89-4.95-7.89S353.35,10,353.35,15s2,8.07,4.95,8.07S363.25,20,363.25,15Z" transform="translate(-314.6 -4.86)"/><path class="cls-1" d="M369.7,22l1.59-1.53A5.13,5.13,0,0,0,375.52,23c2.79,0,4.05-1.41,4.05-4.65V7.32h-8.22V5.19h10.77V18.6c0,3.66-1.65,6.66-6.54,6.66A6.83,6.83,0,0,1,369.7,22Z" transform="translate(-314.6 -4.86)"/><path class="cls-1" d="M388.72,5.22H400.9V7.35h-9.66V13.5h8.16v2.13h-8.16v7.14h10V24.9H388.72Z" transform="translate(-314.6 -4.86)"/><path class="cls-1" d="M405.25,15.06c0-6.33,3.69-10.2,8.82-10.2a7.37,7.37,0,0,1,5.4,2.4L418,8.85a5.28,5.28,0,0,0-4-1.77c-3.75,0-6.21,3-6.21,7.92s2.46,8,6.21,8a5.67,5.67,0,0,0,4.41-2.16l1.44,1.53a7.61,7.61,0,0,1-6.09,2.85C409,25.26,405.25,21.48,405.25,15.06Z" transform="translate(-314.6 -4.86)"/><path class="cls-1" d="M429,7.35h-6.51V5.22h15.54V7.35h-6.51V24.9H429Z" transform="translate(-314.6 -4.86)"/><path class="cls-1" d="M441.31,22.35l1.5-1.74A8.28,8.28,0,0,0,448.57,23c2.7,0,4.26-1.29,4.26-3.09,0-2.1-1.53-2.7-3.51-3.54l-2.85-1.26c-2-.78-4.23-2.16-4.23-5.07s2.7-5.22,6.45-5.22a8.58,8.58,0,0,1,6.06,2.43l-1.32,1.62a6.92,6.92,0,0,0-4.83-1.83c-2.28,0-3.81,1.08-3.81,2.85s1.83,2.58,3.51,3.24l2.76,1.23c2.43,1,4.35,2.34,4.35,5.25,0,3.12-2.64,5.61-7,5.61A10,10,0,0,1,441.31,22.35Z" transform="translate(-314.6 -4.86)"/><rect class="cls-2" x="199.49" y="22.01" width="572.51" height="89.7"/><path class="cls-1" d="M545.34,51.71h4.08L553.1,62.9l1.28,4.24h.16l1.24-4.24,3.72-11.19h4.08V77.94h-3.2V64.82c0-2.56.4-7,.56-9.27h-.12l-1.48,5.11L555.58,71h-2.4L549.5,60.66,548,55.55h-.08c.24,2.24.56,6.71.56,9.27V77.94h-3.12Z" transform="translate(-314.6 -4.86)"/><path class="cls-1" d="M570.26,75.1h6.52V54.55h-6.52V51.71h16.4v2.84h-6.52V75.1h6.52v2.84h-16.4Z" transform="translate(-314.6 -4.86)"/><path class="cls-1" d="M593.06,64.82c0-8.43,4.92-13.59,11.76-13.59a9.83,9.83,0,0,1,7.2,3.2l-1.92,2.12a7,7,0,0,0-5.28-2.36c-5,0-8.28,4-8.28,10.55s3.28,10.72,8.28,10.72a7.56,7.56,0,0,0,5.88-2.88l1.92,2a10.14,10.14,0,0,1-8.12,3.8C598,78.42,593.06,73.38,593.06,64.82Z" transform="translate(-314.6 -4.86)"/><path class="cls-1" d="M618.42,51.71h8.2c5.32,0,9.2,1.92,9.2,7.39,0,5.24-3.88,7.76-9.2,7.76h-4.8V77.94h-3.4Zm7.72,12.43c4.08,0,6.32-1.68,6.32-5s-2.24-4.67-6.32-4.67h-4.32v9.71Zm2.44,0,8,13.76h-3.8l-6.84-12Z" transform="translate(-314.6 -4.86)"/><path class="cls-1" d="M640.38,64.7c0-8.47,4.16-13.47,10.08-13.47s10.08,5,10.08,13.47-4.16,13.72-10.08,13.72S640.38,73.3,640.38,64.7Zm16.68,0c0-6.6-2.64-10.51-6.6-10.51s-6.6,3.91-6.6,10.51,2.64,10.76,6.6,10.76S657.06,71.42,657.06,64.7Z" transform="translate(-314.6 -4.86)"/><path class="cls-1" d="M665.34,51.71h4.08L673.1,62.9l1.28,4.24h.16l1.24-4.24,3.72-11.19h4.08V77.94h-3.2V64.82c0-2.56.4-7,.56-9.27h-.12l-1.48,5.11L675.58,71h-2.4L669.5,60.66,668,55.55h-.08c.24,2.24.56,6.71.56,9.27V77.94h-3.12Z" transform="translate(-314.6 -4.86)"/><path class="cls-1" d="M688.38,64.7c0-8.47,4.16-13.47,10.08-13.47s10.08,5,10.08,13.47-4.16,13.72-10.08,13.72S688.38,73.3,688.38,64.7Zm16.68,0c0-6.6-2.64-10.51-6.6-10.51s-6.6,3.91-6.6,10.51,2.64,10.76,6.6,10.76S705.06,71.42,705.06,64.7Z" transform="translate(-314.6 -4.86)"/><path class="cls-1" d="M713.62,68V51.71H717V68.1c0,5.4,2.36,7.36,5.48,7.36s5.56-2,5.56-7.36V51.71h3.24V68c0,7.52-3.68,10.4-8.8,10.4S713.62,75.54,713.62,68Z" transform="translate(-314.6 -4.86)"/><path class="cls-1" d="M737.14,74.54l2-2.32a11,11,0,0,0,7.68,3.24c3.6,0,5.68-1.72,5.68-4.12,0-2.8-2-3.6-4.68-4.72L744,64.94c-2.6-1-5.64-2.88-5.64-6.75s3.6-7,8.6-7a11.45,11.45,0,0,1,8.08,3.24l-1.76,2.16a9.22,9.22,0,0,0-6.44-2.44c-3,0-5.08,1.44-5.08,3.79,0,2.52,2.44,3.44,4.68,4.32l3.68,1.64c3.24,1.28,5.8,3.12,5.8,7,0,4.16-3.52,7.48-9.28,7.48A13.34,13.34,0,0,1,737.14,74.54Z" transform="translate(-314.6 -4.86)"/><path class="cls-1" d="M763,51.71h16.24v2.84H766.38v8.19h10.88v2.84H766.38V75.1h13.28v2.84H763Z" transform="translate(-314.6 -4.86)"/><path class="cls-1" d="M808.42,67.94c0-10.19,5.16-15.39,11.76-15.39,5.52,0,8.12,4.12,8.12,9.51V73.94h-2L826,71.62h-.16a7.17,7.17,0,0,1-5.28,2.8,5,5,0,0,1-5.16-5.24c0-4.08,3.76-6,10.56-6.84v-.56c0-3.84-1.76-7-6-7-4.8,0-9.08,4.48-9.08,13.31,0,8.56,4.08,13.44,9.24,13.44a8.82,8.82,0,0,0,5.64-1.8l1.12,1.8a11.45,11.45,0,0,1-6.84,2.2C813.78,83.7,808.42,78.22,808.42,67.94Zm17.28,1.6v-5c-5.48.8-7.64,2.16-7.64,4.6,0,1.88,1.24,3,3.2,3C822.7,72.06,824.26,71.18,825.7,69.54Z" transform="translate(-314.6 -4.86)"/><path class="cls-1" d="M833.62,68V51.71H837V68.1c0,5.4,2.36,7.36,5.48,7.36s5.56-2,5.56-7.36V51.71h3.24V68c0,7.52-3.68,10.4-8.8,10.4S833.62,75.54,833.62,68Z" transform="translate(-314.6 -4.86)"/><path class="cls-1" d="M857.06,64.82c0-8.43,4.92-13.59,11.76-13.59a9.83,9.83,0,0,1,7.2,3.2l-1.92,2.12a7,7,0,0,0-5.28-2.36c-5,0-8.28,4-8.28,10.55s3.28,10.72,8.28,10.72a7.56,7.56,0,0,0,5.88-2.88l1.92,2a10.14,10.14,0,0,1-8.12,3.8C862,78.42,857.06,73.38,857.06,64.82Z" transform="translate(-314.6 -4.86)"/><path class="cls-1" d="M882.26,75.1h6.52V54.55h-6.52V51.71h16.4v2.84h-6.52V75.1h6.52v2.84h-16.4Z" transform="translate(-314.6 -4.86)"/><polyline class="cls-3" points="0 46.01 165 46.01 227.86 107.61 599 108.01"/></g></g></svg>