<?xml version="1.0" encoding="utf-8"?>
<!-- Generator: Adobe Illustrator 24.2.0, SVG Export Plug-In . SVG Version: 6.00 Build 0)  -->
<svg version="1.1" xmlns="http://www.w3.org/2000/svg" xmlns:xlink="http://www.w3.org/1999/xlink" x="0px" y="0px"
	 viewBox="0 0 1366 768" style="enable-background:new 0 0 1366 768;" xml:space="preserve">
<style type="text/css">
	.st0{fill:none;}
	.st1{display:none;stroke:#FFFFFF;}
	.st2{font-family:'MyriadPro-Regular';}
	.st3{font-size:12px;}
	.st4{fill:none;stroke:#FFFFFF;stroke-miterlimit:10;}
	.st5{display:none;}
	.st6{display:inline;fill:none;stroke:#FFFFFF;stroke-miterlimit:10;}
	.st7{display:inline;}
	.st8{fill:none;stroke:url(#SVGID_1_);stroke-width:2;stroke-miterlimit:10;}
	.st9{fill:none;stroke:url(#SVGID_2_);stroke-width:2;stroke-miterlimit:10;}
	.st10{fill:none;stroke:url(#SVGID_3_);stroke-width:2;stroke-miterlimit:10;}
	.st11{fill:none;stroke:url(#SVGID_4_);stroke-width:2;stroke-miterlimit:10;}
	.st12{fill:none;stroke:url(#SVGID_5_);stroke-width:2;stroke-miterlimit:10;}
	.st13{fill:none;stroke:url(#SVGID_6_);stroke-width:2;stroke-miterlimit:10;}
	.st14{fill:none;stroke:url(#SVGID_7_);stroke-width:2;stroke-miterlimit:10;}
	.st15{fill:none;stroke:url(#SVGID_8_);stroke-width:2;stroke-miterlimit:10;}
	.st16{fill:none;stroke:url(#SVGID_9_);stroke-width:2;stroke-miterlimit:10;}
	.st17{fill:none;stroke:url(#SVGID_10_);stroke-width:2;stroke-miterlimit:10;}
	.st18{fill:none;stroke:url(#SVGID_11_);stroke-width:2;stroke-miterlimit:10;}
</style>
<g id="Layer_2">
	<rect width="1366" height="768"/>
	<rect x="118.8" y="62.5" class="st0" width="351.6" height="147.4"/>
	<text transform="matrix(1 0 0 1 118.7896 70.9937)" class="st1 st2 st3">robot hand with pulsating lines extending</text>
</g>
<g id="Layer_1">
	<g class="st5">
		<polygon class="st6" points="498,383 502,384 504,383 505.8,380 501.2,347.4 541.1,341.6 547,374.2 549,376.2 551,377.2 
			554,376.2 556,373.2 557.9,364.5 554.5,344.8 543.8,334.3 533.8,288.2 531.5,288.6 533.1,303.1 528,307 502,311 495.5,308.5 
			493.4,294.1 490.4,294.4 496,341.6 489,357 491.6,374.9 		"/>
		<polygon class="st6" points="502,310.7 500.4,295.1 512.4,293.1 514.6,309.1 		"/>
		<polyline class="st6" points="500.7,275 496.6,275.6 494.7,274.6 490.8,238.1 491.8,236.1 515.9,233.1 517.4,234.1 523.3,270.6 
			522.2,272 518.2,272.6 		"/>
		<polyline class="st6" points="501.1,348.7 502.6,310.9 527.7,307 524,291.5 512.4,293.1 		"/>
		<line class="st6" x1="541.1" y1="341.6" x2="527.5" y2="306.5"/>
		<path class="st6" d="M522.2,291.6l-20.5,2.6c-2.2,0.3-4.2-1.3-4.5-3.5l-0.8-6c-0.3-2.2,1.3-4.2,3.5-4.5l20.5-2.6
			c2.2-0.3,4.2,1.3,4.5,3.5l0.8,6C525.9,289.3,524.4,291.3,522.2,291.6z"/>
		<g class="st7">
			<path class="st4" d="M508.9,366.5c-2.1,0.2-4-1.3-4.3-3.4l-1.5-9.9c-0.3-2.2,1.2-4.2,3.4-4.6l30.2-4.5c2.2-0.3,4.2,1.2,4.6,3.4
				l1.5,9.9c0.3,2.2-1.2,4.2-3.4,4.5"/>
			<polyline class="st4" points="505.8,348.8 509.8,375.9 518.9,374.3 517.4,363.2 			"/>
			<polyline class="st4" points="536.9,344.2 540.8,371.3 531.6,372.4 530,361.3 			"/>
			<line class="st4" x1="521.6" y1="346.4" x2="524.2" y2="364.2"/>
			<line class="st4" x1="517.3" y1="365.2" x2="530.4" y2="363.8"/>
		</g>
		<polygon class="st6" points="528.2,306.5 524.9,277.9 524.1,276.5 523.6,272.7 524.3,271 528.2,270.3 529.3,271.3 529.8,275.7 
			529.4,277.2 532.7,302.8 		"/>
		<polygon class="st6" points="495.5,308.5 491.9,282.1 490.8,280.6 490.4,276.7 491.1,274.8 494.4,274.5 495.6,275.5 496.2,279.9 
			495.7,281.4 499.9,310 		"/>
		<line class="st6" x1="504.5" y1="274.4" x2="502.5" y2="274.6"/>
		<polyline class="st6" points="502.5,274.6 501.3,274.8 502.9,271.5 514.6,270 517.3,272.6 514.4,273 		"/>
		<polygon class="st6" points="505,279.5 504.4,272.8 513.8,271.6 515.1,278.2 		"/>
		<path class="st6" d="M524.5,233.5c0,0,5.3,28.8,6.1,31.7c0.8,2.9,2.1,3.5,2.1,3.5l-1.9,2.3l-7.5-3.7l-5.3-33.7l1.5-4.7
			L524.5,233.5"/>
		<path class="st6" d="M524.6,233.1c0,0,3.8-5.4,1-12.2c-2.8-6.7-6.9-21.6-11.5-34.8c-1.1-3.2-8.5-10.9-22.5-6.9
			c-6.7,1.9-8.9,4.9-10,7.5c-2,4.6-3.1,42.9-2.7,44.4c0,0,0.6,4.1,1.8,6s2.6,3.5,2.6,3.5l4.2-8.5l-0.8-21.5l2.9-2.7l19.6-2.1
			l4.1,2.7l6.2,19.9L524.6,233.1z"/>
		<path class="st6" d="M530.7,271.2l1.9-2.5l2,1.3c0,0,2.9,9.5,2.1,20.2l-2.3,1.6"/>
		<path class="st6" d="M483.4,240.7c0,0,3.1,29.1,3.2,32.2s-1,3.9-1,3.9l2.5,1.6l6.1-5.7l-4.6-33.8l-2.7-4.1L483.4,240.7"/>
		<path class="st6" d="M488.2,278.6l-2.6-1.8l-1.6,1.8c0,0,0,9.9,3.7,19.9l2.7,0.9"/>
	</g>
	<g>
		<g>
			<polygon class="st4" points="736,364.3 740,365.4 742,364.3 743.9,361 739.2,324.9 779.2,318.6 785,354.6 787,356.8 789,357.9 
				792,356.8 794,353.5 795.9,343.9 792.5,322.1 781.8,310.5 771.8,259.6 769.6,259.9 771.1,276 766,280.3 740,284.7 733.5,282 
				731.4,266.1 728.4,266.4 734,318.6 727,335.6 729.6,355.3 			"/>
			<polygon class="st4" points="740,284.4 738.4,267.2 750.4,265 752.6,282.6 			"/>
			<polyline class="st4" points="738.7,245 734.6,245.6 732.7,244.4 728.8,204.1 729.8,202 753.9,198.6 755.5,199.7 761.3,240 
				760.2,241.6 756.2,242.2 			"/>
			<polyline class="st4" points="739.2,326.4 740.6,284.6 765.7,280.4 762,263.2 750.4,265 			"/>
			<line class="st4" x1="779.2" y1="318.6" x2="765.5" y2="279.8"/>
			<path class="st4" d="M760.2,263.3l-20.5,2.9c-2.2,0.3-4.2-1.4-4.5-3.8l-0.8-6.6c-0.3-2.4,1.3-4.6,3.5-4.9l20.5-2.9
				c2.2-0.3,4.2,1.4,4.5,3.8l0.8,6.6C764,260.7,762.4,263,760.2,263.3z"/>
			<g>
				<path class="st4" d="M746.9,346.1c-2.1,0.2-4-1.4-4.3-3.7l-1.5-10.9c-0.3-2.4,1.2-4.7,3.4-5l30.2-5c2.2-0.4,4.2,1.3,4.5,3.7
					l1.5,10.9c0.3,2.4-1.2,4.7-3.4,5"/>
				<polyline class="st4" points="743.9,326.6 747.9,356.5 756.9,354.7 755.4,342.5 				"/>
				<polyline class="st4" points="775,321.5 778.8,351.4 769.7,352.5 768,340.3 				"/>
				<line class="st4" x1="759.6" y1="323.9" x2="762.3" y2="343.5"/>
				<line class="st4" x1="755.3" y1="344.7" x2="768.4" y2="343.1"/>
			</g>
			<polygon class="st4" points="766.3,279.8 762.9,248.1 762.1,246.6 761.6,242.4 762.3,240.5 766.3,239.8 767.3,240.8 767.8,245.7 
				767.4,247.4 770.7,275.7 			"/>
			<polygon class="st4" points="733.5,282 730,252.8 728.8,251.1 728.4,246.8 729.1,244.7 732.4,244.4 733.6,245.5 734.2,250.4 
				733.7,252 737.9,283.6 			"/>
			<line class="st4" x1="742.5" y1="244.2" x2="740.6" y2="244.5"/>
			<polyline class="st4" points="740.6,244.5 739.4,244.7 740.9,241.1 752.6,239.5 755.4,242.3 752.5,242.8 			"/>
			<polygon class="st4" points="743,249.9 742.4,242.5 751.8,241.2 753.2,248.4 			"/>
			<path class="st4" d="M762.5,199.1c0,0,5.3,31.8,6.1,35.1c0.8,3.2,2.1,3.8,2.1,3.8l-1.9,2.5l-7.5-4.1l-5.3-37.2l1.5-5.2
				L762.5,199.1"/>
			<path class="st4" d="M762.6,198.6c0,0,3.8-6,1-13.4c-2.8-7.4-6.9-23.8-11.5-38.4c-1.1-3.5-8.5-12-22.5-7.6
				c-6.7,2.1-8.9,5.4-10,8.3c-2,5.1-3.1,47.4-2.7,49c0,0,0.6,4.5,1.8,6.7c1.2,2.1,2.6,3.8,2.6,3.8l4.2-9.4l-0.8-23.8l2.9-2.9
				l19.6-2.3l4.1,3l6.2,22L762.6,198.6z"/>
			<path class="st4" d="M768.8,240.8l1.9-2.7l2,1.4c0,0,2.9,10.5,2.2,22.3l-2.3,1.8"/>
			<path class="st4" d="M721.5,207c0,0,3.1,32.2,3.2,35.5c0.1,3.4-1,4.3-1,4.3l2.5,1.8l6.1-6.3l-4.6-37.4l-2.7-4.5L721.5,207"/>
			<path class="st4" d="M726.3,248.9l-2.6-2l-1.6,2c0,0,0,11,3.7,22l2.7,1"/>
			<polygon class="st4" points="733.8,201.4 731.9,182 731,182.1 730.4,181.5 730,177.8 730.7,176.3 735.4,175.8 736.4,177 
				736.7,180.4 736.3,181.4 735.4,181.5 737.5,201 			"/>
			<polygon class="st4" points="745.3,199.6 743,180.2 742.1,180.3 741.5,179.8 741.1,176.1 741.7,174.6 746.4,173.9 747.4,175.1 
				747.8,178.5 747.4,179.5 746.5,179.6 749,199.1 			"/>
			<line class="st4" x1="736.7" y1="180.4" x2="741.5" y2="179.8"/>
			<line class="st4" x1="736.4" y1="177" x2="741.1" y2="176.1"/>
		</g>
		<g>
			<polygon class="st4" points="808.4,354.1 812.2,355.8 814.3,355.1 816.6,352.1 816.9,315.9 857.2,316.2 858.2,352.5 859.9,355 
				861.7,356.4 864.8,355.9 867.2,352.9 870.4,343.8 870,321.8 860.9,308.7 857.9,257 855.6,257 855,273 849.4,276.4 823.1,276.5 
				817,272.8 817.1,256.8 814,256.6 812.6,308.8 803.4,324.4 803.3,344.2 			"/>
			<polygon class="st4" points="823.1,276.2 823.9,259.1 836,258.9 835.8,276.5 			"/>
			<polyline class="st4" points="827.1,237.2 823,237.2 821.3,235.8 822.8,195.5 824.1,193.5 848.4,194.2 849.8,195.5 850.1,236.1 
				848.9,237.5 844.8,237.4 			"/>
			<polyline class="st4" points="816.6,317.4 823.7,276.5 849.1,276.4 847.7,259 836,258.9 			"/>
			<line class="st4" x1="857.2" y1="316.2" x2="849" y2="275.8"/>
			<path class="st4" d="M845.9,258.8l-20.6-0.5c-2.2-0.1-4-2.1-3.9-4.5l0.1-6.6c0-2.4,1.9-4.3,4.1-4.3l20.6,0.5
				c2.2,0.1,4,2.1,3.9,4.5l-0.1,6.6C850,256.9,848.1,258.8,845.9,258.8z"/>
			<g>
				<path class="st4" d="M821.6,337.9c-2.1-0.1-3.8-2-3.8-4.4l0-11c0-2.4,1.8-4.4,4-4.4l30.5,0c2.2,0,4,2,4,4.4l0,11
					c0,2.4-1.8,4.4-4,4.4"/>
				<polyline class="st4" points="821.2,318.3 821.2,348.3 830.4,348.1 830.5,335.8 				"/>
				<polyline class="st4" points="852.7,318.3 852.5,348.4 843.2,348 843.2,335.7 				"/>
				<line class="st4" x1="837.2" y1="318.2" x2="837.2" y2="338"/>
				<line class="st4" x1="830.1" y1="337.9" x2="843.3" y2="338.5"/>
			</g>
			<polygon class="st4" points="849.7,275.9 850.7,244.3 850,242.7 850.1,238.4 851.1,236.7 855.1,236.7 856,237.8 855.8,242.8 
				855.2,244.3 854.6,272.6 			"/>
			<polygon class="st4" points="817,272.8 817.4,243.5 816.5,241.7 816.7,237.3 817.7,235.4 821,235.7 822,236.9 822,241.8 
				821.2,243.4 821.2,275.1 			"/>
			<line class="st4" x1="831" y1="237.2" x2="829" y2="237.1"/>
			<polyline class="st4" points="829,237.1 827.8,237.1 829.8,233.8 841.6,234.1 843.9,237.4 841,237.3 			"/>
			<polygon class="st4" points="830.7,242.8 831.1,235.4 840.6,235.7 840.9,243 			"/>
			<path class="st4" d="M856.8,196.1c0,0,1,32.2,1.3,35.5c0.4,3.3,1.5,4.1,1.5,4.1l-2.2,2.1l-6.8-5.3l-0.2-37.5l2.1-4.8L856.8,196.1
				"/>
			<path class="st4" d="M857,195.6c0,0,4.6-5.3,2.8-13.1c-1.8-7.8-3.6-24.5-6.2-39.6c-0.6-3.6-6.7-13.2-21.2-11.1
				c-6.9,1-9.5,3.9-11,6.5c-2.7,4.7-9.4,46.1-9.3,47.7c0,0,0,4.6,0.8,6.8c0.9,2.3,2.1,4.2,2.1,4.2l5.4-8.6l2.4-23.5l3.2-2.4
				l19.7,0.9l3.7,3.6l3.2,22.6L857,195.6z"/>
			<path class="st4" d="M857.4,238l2.3-2.4l1.8,1.8c0,0,1.4,10.8-0.9,22.2l-2.5,1.4"/>
			<path class="st4" d="M815.2,197.1c0,0-1.2,32.1-1.6,35.5s-1.6,4.1-1.6,4.1l2.2,2.2l6.9-5.2l0.5-37.5l-2.1-4.8L815.2,197.1"/>
			<path class="st4" d="M814.3,239.1l-2.3-2.4l-1.8,1.7c0,0-1.5,10.8,0.7,22.3l2.5,1.4"/>
			<polygon class="st4" points="828.1,193.7 828.9,174.2 827.9,174.2 827.5,173.5 827.6,169.8 828.4,168.5 833.2,168.7 834,170.1 
				833.8,173.5 833.3,174.4 832.4,174.3 831.9,193.9 			"/>
			<polygon class="st4" points="839.7,193.8 840.1,174.3 839.2,174.3 838.7,173.6 838.7,169.9 839.5,168.6 844.3,168.7 845.1,170 
				845,173.4 844.5,174.3 843.6,174.3 843.5,193.9 			"/>
			<line class="st4" x1="833.8" y1="173.5" x2="838.7" y2="173.6"/>
			<line class="st4" x1="834" y1="170.1" x2="838.7" y2="169.9"/>
		</g>
		<g>
			<polygon class="st4" points="669.1,384.9 673.2,385.3 675,383.9 676.4,380.4 667.4,346.2 706.2,333.6 716.5,367.6 718.7,369.4 
				720.8,370.1 723.7,368.6 725.2,365 725.9,355.4 719.8,334.8 707.8,325.4 691.6,277.6 689.4,278.3 692.9,293.6 688.4,298.6 
				663.2,307.1 656.4,305.5 652.3,290.4 649.4,291.2 661.4,340.9 656.6,358.5 661.6,377.2 			"/>
			<polygon class="st4" points="663.1,306.8 659.4,290.4 671,286.3 675.4,303 			"/>
			<polyline class="st4" points="656.9,268.8 652.9,270.1 650.9,269.2 642,230.8 642.7,228.5 666.2,221.4 667.9,222.2 678.7,260.4 
				677.8,262.1 673.9,263.3 			"/>
			<polyline class="st4" points="667.5,347.7 663.7,306.9 688.1,298.7 682.3,282.7 671,286.3 			"/>
			<line class="st4" x1="706.2" y1="333.6" x2="687.8" y2="298.2"/>
			<path class="st4" d="M680.5,283.1l-19.9,6.1c-2.1,0.7-4.3-0.7-4.9-3l-1.6-6.3c-0.6-2.3,0.7-4.7,2.8-5.4l19.9-6.1
				c2.1-0.7,4.3,0.7,4.9,3l1.6,6.3C683.9,280,682.7,282.4,680.5,283.1z"/>
			<g>
				<path class="st4" d="M677.6,365.5c-2.1,0.6-4.2-0.7-4.8-2.9l-2.8-10.3c-0.6-2.3,0.6-4.7,2.7-5.4l29.3-9.7c2.1-0.7,4.3,0.6,5,2.9
					l2.8,10.3c0.6,2.3-0.6,4.7-2.7,5.4"/>
				<polyline class="st4" points="672.2,347 679.9,375.4 688.6,372.2 685.6,360.6 				"/>
				<polyline class="st4" points="702.4,337.1 709.9,365.5 701,368.1 697.8,356.5 				"/>
				<line class="st4" x1="687.5" y1="341.9" x2="692.5" y2="360.5"/>
				<line class="st4" x1="685.8" y1="362.7" x2="698.5" y2="359.1"/>
			</g>
			<polygon class="st4" points="688.6,298.1 681.3,267.9 680.3,266.6 679.3,262.6 679.8,260.6 683.6,259.3 684.8,260.1 685.9,264.8 
				685.7,266.5 692.4,293.4 			"/>
			<polygon class="st4" points="656.4,305.5 649.2,277.8 647.9,276.3 646.9,272.2 647.4,270 650.6,269.3 651.9,270.1 653.1,274.7 
				652.9,276.4 660.9,306.3 			"/>
			<line class="st4" x1="660.6" y1="267.5" x2="658.7" y2="268.1"/>
			<polyline class="st4" points="658.7,268.1 657.5,268.4 658.6,264.6 670,261.2 673.1,263.5 670.3,264.4 			"/>
			<polygon class="st4" points="661.8,272.9 660.2,265.7 669.5,263 671.7,269.8 			"/>
			<path class="st4" d="M674.8,220.5c0,0,9.2,30,10.4,33c1.2,3,2.5,3.4,2.5,3.4l-1.6,2.7l-7.9-2.8l-9.9-35.2l0.8-5.2L674.8,220.5"/>
			<path class="st4" d="M674.9,220c0,0,3.1-6.4-0.7-13.2c-3.7-6.8-9.8-22-16.2-35.4c-1.5-3.2-9.9-10.3-23.2-3.7
				c-6.4,3.1-8.1,6.7-8.9,9.6c-1.4,5.3,2.8,46.5,3.4,48c0,0,1.2,4.3,2.6,6.2s3.1,3.3,3.1,3.3l3-9.8l-3.7-22.9l2.5-3.3l19.2-5.4
				l4.4,2.2l8.9,20.3L674.9,220z"/>
			<path class="st4" d="M686.2,259.9l1.6-3l2.2,1.1c0,0,4.1,9.7,4.9,21.2l-2,2.1"/>
			<path class="st4" d="M635.1,234.8c0,0,7.1,30.7,7.6,33.9s-0.4,4.3-0.4,4.3l2.7,1.3l5.2-7.1l-9.2-35.5l-3.3-3.9L635.1,234.8"/>
			<path class="st4" d="M645.1,274.6l-2.8-1.5l-1.3,2.2c0,0,1.3,10.6,6.4,20.8l2.8,0.6"/>
			<polygon class="st4" points="646.6,227.4 642.4,208.8 641.4,209.1 640.8,208.6 640,205.1 640.4,203.5 645.1,202.2 646.1,203.3 
				646.9,206.5 646.6,207.5 645.7,207.8 650.3,226.4 			"/>
			<polygon class="st4" points="657.8,223.8 653.2,205.3 652.2,205.6 651.6,205.1 650.7,201.6 651.1,200.1 655.7,198.7 656.8,199.7 
				657.6,202.9 657.4,203.9 656.5,204.2 661.4,222.6 			"/>
			<line class="st4" x1="646.9" y1="206.5" x2="651.6" y2="205.1"/>
			<line class="st4" x1="646.1" y1="203.3" x2="650.7" y2="201.6"/>
		</g>
		<g>
			<polygon class="st4" points="622.1,424.6 625.9,424.1 627.3,422.6 627.8,419.5 612.7,394.1 645,375.9 661.2,400.9 663.6,401.9 
				665.6,402 667.9,400.2 668.6,397.1 667.2,389.2 657.6,374.1 644.8,369 620.4,334.3 618.6,335.3 624.9,346.8 621.9,351.7 
				600.9,363.7 594.5,363.9 587.8,352.6 585.3,353.9 606.3,391.1 605.5,406.1 613.9,420 			"/>
			<polygon class="st4" points="600.8,363.5 594.2,351.2 603.8,345.5 611.1,357.9 			"/>
			<polyline class="st4" points="587.5,334.4 584.2,336.3 582.2,336.1 566.4,307.2 566.6,305.3 586.2,294.7 587.9,295 605.4,323.2 
				604.9,324.7 601.7,326.5 			"/>
			<polyline class="st4" points="613.1,395.2 601.4,363.5 621.6,351.9 613.1,340.3 603.8,345.5 			"/>
			<line class="st4" x1="645" y1="375.9" x2="621.3" y2="351.5"/>
			<path class="st4" d="M611.6,340.9l-16.7,9c-1.8,1-4,0.4-5-1.4l-2.7-4.7c-1-1.7-0.3-3.9,1.4-4.9l16.7-9c1.8-1,4-0.4,5,1.4l2.7,4.7
				C614.1,337.8,613.4,340,611.6,340.9z"/>
			<g>
				<path class="st4" d="M625.8,407.3c-1.7,0.9-3.9,0.3-4.9-1.3l-4.6-7.7c-1-1.7-0.4-3.9,1.3-4.9l24.3-13.9c1.8-1,4-0.4,5.1,1.3
					l4.6,7.7c1,1.7,0.4,3.9-1.3,4.9"/>
				<polyline class="st4" points="617.2,393.7 629.9,414.8 637.1,410.4 632,401.8 				"/>
				<polyline class="st4" points="642.3,379.5 654.9,400.6 647.4,404.5 642.1,395.9 				"/>
				<line class="st4" x1="629.9" y1="386.5" x2="638.2" y2="400.3"/>
				<line class="st4" x1="632.6" y1="403.4" x2="643.3" y2="397.9"/>
			</g>
			<polygon class="st4" points="621.9,351.2 609.3,328.7 608.1,327.8 606.3,324.8 606.4,323.2 609.5,321.3 610.8,321.7 612.7,325.3 
				612.9,326.6 624.4,346.7 			"/>
			<polygon class="st4" points="594.5,363.9 582.4,343.3 580.9,342.3 579.2,339.3 579.2,337.4 581.9,336.2 583.3,336.5 585.3,340 
				585.4,341.4 598.8,363.6 			"/>
			<line class="st4" x1="590.6" y1="332.6" x2="589" y2="333.5"/>
			<polyline class="st4" points="589,333.5 588,334 588.2,330.8 597.7,325.7 601,326.9 598.6,328.2 			"/>
			<polygon class="st4" points="592.7,336.7 589.9,331.3 597.6,327.2 601,332.2 			"/>
			<path class="st4" d="M593.7,292.2c0,0,14.4,22,16.1,24.2c1.7,2.2,3,2.2,3,2.2l-0.9,2.5l-7.7-0.6l-16.1-26.1l-0.3-4.3L593.7,292.2
				"/>
			<path class="st4" d="M593.7,291.7c0,0,1.4-5.8-3.3-10.4c-4.7-4.6-13.3-15.5-21.8-24.9c-2-2.2-11-6.2-21.6,1.9
				c-5.1,3.8-5.9,7-6,9.5c-0.2,4.5,12,36.5,12.8,37.6c0,0,1.9,3.2,3.6,4.4c1.7,1.2,3.4,2,3.4,2l0.7-8.5l-8-17.5l1.5-3.2l16.1-8.3
				l4.4,0.9l12.1,14.4L593.7,291.7z"/>
			<path class="st4" d="M612,321.2l0.8-2.7l2.2,0.4c0,0,5.7,6.9,8.7,15.9l-1.4,2.1"/>
			<path class="st4" d="M561,311.8c0,0,12.7,23,13.8,25.5c1.1,2.5,0.5,3.6,0.5,3.6l2.7,0.5l3.3-6.8l-15.5-26.4l-3.7-2.4L561,311.8"
				/>
			<path class="st4" d="M578.1,341.6l-2.8-0.6l-0.7,2c0,0,3.4,8.2,10,15.2l2.6-0.1"/>
			<polygon class="st4" points="569.8,303.6 562.2,289.6 561.4,290 560.7,289.8 559.3,287.1 559.4,285.8 563.3,283.8 564.5,284.4 
				565.8,286.8 565.7,287.7 565,288.1 572.9,302 			"/>
			<polygon class="st4" points="579.1,298.3 571.2,284.6 570.4,285 569.7,284.7 568.2,282.1 568.3,280.8 572.1,278.7 573.3,279.3 
				574.7,281.7 574.7,282.6 574,283 582.2,296.7 			"/>
			<line class="st4" x1="565.8" y1="286.8" x2="569.7" y2="284.7"/>
			<line class="st4" x1="564.5" y1="284.4" x2="568.2" y2="282.1"/>
		</g>
	</g>
	<circle class="st4" cx="870.4" cy="362.3" r="7.2"/>
	<polyline class="st4" points="876.3,365.9 898.9,472.2 887.3,466.3 866.6,367.9 	"/>
	<line class="st4" x1="875.8" y1="366" x2="876.3" y2="365.9"/>
	<path class="st4" d="M633.9,423l37.9-21.4c0,0,2-0.6,3.3,1.4s7.7,30.7,7.4,32.5c-0.2,1.9-48.6,27.7-49.6,27.5
		c-1-0.2-6.6-33.1-5.1-35.1C629.3,425.9,633.9,423,633.9,423z"/>
	<path class="st4" d="M685.8,435.1c0,0-9-30.2-8.8-35.3c0.2-5.1,68.2-29.4,86.2-32.7c18.1-3.3,39.1-0.5,49.3-0.5
		c10.2,0-28.6,66.2-28.6,66.2S679.9,477.6,672,475.1c-7.9-2.5-14.5-6.3-14.5-6.3s-19.3,9.6-20.7,6.9c-1.4-2.6-3.3-4.8-2.6-7.9
		c0.7-3.1,49.8-28.3,50.9-29.2C686.1,437.8,685.8,435.1,685.8,435.1z"/>
	<path class="st4" d="M882,465c2.1-3.7-4.6-46.4-13-48.1c-8.4-1.8-53.3,56.3-48.4,59.5C825.6,479.5,882,465,882,465z"/>
	<path class="st4" d="M866.1,411.9c1-3-1.5-5.7-1.5-5.7s-31.7,3.7-34.4,5.7c-2.6,2,3.4,29.9,5.8,31.1
		C838.4,444.1,866.1,411.9,866.1,411.9z"/>
	<path class="st4" d="M818.9,407.4c1.3,2.6,50-3.4,49.7-5.5c-0.3-2.2-2.8-28.1-4.6-30.3c-1.8-2.3-23.6-10.1-25.7-8.9
		c-2.1,1.2-20.3,41.4-20.4,42.4C817.8,406,818.9,407.4,818.9,407.4z"/>
	<circle class="st4" cx="823.9" cy="432.9" r="3"/>
	<path class="st4" d="M685.3,479.9c1.3-3.3,95.9-44,99.6-43c3.7,1,3.3,5.3,3,7.8c-0.4,2.5-30.5,65.1-30.5,65.1l8.6,8.5l-28.3,59.7
		c0,0-42.4-17.6-43.6-19.2C692.8,557,685.3,479.9,685.3,479.9z"/>
	<path class="st4" d="M646.3,491.2c0,0,23.5-8,25.2-8.6c1.7-0.6,9.9,3.2,10.3,4.6s9.1,68,9.1,68s2.7,9.1,5.6,9.8
		c3,0.8,16.9,5.2,16.9,5.2l-6.1,14.2l-36.4-19.4L646.3,491.2z"/>
	<path class="st4" d="M780.2,551.4l21.2,31.1c0,0,22.4,0.5,31.4,3.5c9,3,22.2,21.6,25.9,22.6c3.7,1,51.8-46.7,58.9-57.2
		c7-10.5,19.5-33.8,21.6-36.6c1.4-1.9-1.2-3.4-1.2-3.4s-12.5,10.3-22.9,3.9c-10.6-6.5-7-13.5-8.5-18.6s-3.8-6.6-3.8-6.6
		s-5.3,3.6-10.3,1.1c-5-2.5-15.6-9.4-15.6-9.4s-0.3-2.1,1.5-5.8c1.9-3.9-45.4,9.7-52.3,13.2c-6.9,3.5-25.4,16.6-31.7,26.1
		C788.2,524.8,780.2,551.4,780.2,551.4z"/>
	<path class="st4" d="M920.9,515.3c-2.9-11,17.4-46.1,20.8-46.1c3.3,0.1,7.1,19.6,7.3,21.6c0.3,2-8.1,18.6-10.7,20.7
		c-1.5,1.2-14.4,5.6-15.7,5.3C921.3,516.5,920.9,515.3,920.9,515.3z"/>
	<path class="st4" d="M637.8,477.6c1.2-0.5,5.4-0.3,5.4-0.3l15.7-6.1c0,0,1.6,0.3,1.9,1.4s-0.4,10.5-0.6,10.9
		c-0.2,0.4-15.8,6.3-16.7,5.5C642.6,488.3,637.8,477.6,637.8,477.6z"/>
	<polyline class="st4" points="877.5,478.2 885.3,465.1 906.7,477 908.9,478.2 902.8,490.2 	"/>
	<line class="st4" x1="899.8" y1="490.9" x2="906.7" y2="477"/>
	<path class="st4" d="M796.9,446.8c0,0,7.6-3,11.2-1c3.6,2,9.8,4.6,9.8,4.6s2.6,1.6,3.4,3.4c0.8,1.8,2.7,6,2.7,8
		c-0.1,2-7.5,23.4-9.7,24c-2.2,0.6-6.4,2.6-7.4,1.8c-1-0.8-4.8-6-8.8-7.6s-12-3.8-14-2.4C783.4,478,796.9,446.8,796.9,446.8z"/>
	<path class="st4" d="M823.9,363.1l-4,10.2l-7.4,3.3l-8.5,19.3l3,9.3l-9.9,3.9l-4.2,7.7c0,0,14-5.9,14.6-5.5
		c0.7,0.5-0.5-0.2,0.7,0.5c1.2,0.7,5.8,14.3,6,15.5s0.7,2.4-1.6,2.9c-2.3,0.5-23.6-6.4-23.6-6.4l-3.1,5.5c0,0,11.4,2.6,11.4,4.1
		s-0.7,1.2-1.5,1.7c-0.8,0.5-8.6,3-8.6,3l2.8,5.9l-29.7,68.5l6,4.9c10.4-24.7,22.1-52.4,32.5-77.1l16-5.5c0,0,6.2,3.7,9.1,3.6
		c2.9-0.1,4.9-1.5,5.3-2.7c0.4-1.2,1.3-3.1,0.9-4.5s-2-2.9-2-2.9l-5.1-2.7l-8.1-21.2l16.9-37.9"/>
	<path class="st4" d="M831.4,366.5c2.7-0.8,4.8-3.3,4.8-6.3c0-3.6-2.9-6.6-6.6-6.6c-3.6,0-6.6,2.9-6.6,6.6c0,1.3,0.3,2.4,1,3.4"/>
	<circle class="st4" cx="829.4" cy="360.2" r="4"/>
	<circle class="st4" cx="868.6" cy="407.7" r="7.2"/>
	<path class="st4" d="M708.3,583.8c0,0,5.2-13.2,6.1-13.4c0.9-0.3,16.9,6.8,17.5,7.6c0.6,0.8-4.5,13.5-5.1,14.2
		c-0.6,0.6-17.7-6.6-18-7.1S708.3,583.8,708.3,583.8z"/>
	<path class="st4" d="M750.4,551.1c0,0,17.9,7.4,20.3,11.4c2.4,4,3.6,9.6,3.6,9.6s2,3.6,4,4c2,0.4,6.6-5.5,6.8-11.4
		c0.2-5.9-3.8-9.3-6.4-13.6c-2.6-4.4-22.2-12.8-22.2-12.8L750.4,551.1z"/>
	<path class="st4" d="M802.7,506.4c-0.8-1.1-1.1-1.6-1.8-2.8c-2.6-4.4-22.2-12.8-22.2-12.8l-6.1,12.8c0,0,17.9,7.4,20.3,11.4
		c0.5,0.8,0.3,0.4,0.7,1.2"/>
	<path class="st4" d="M765.7,518.8c2.7-0.7,5.1-0.8,7.6-0.5c5.1,0.5,16.3,6.8,16.3,6.8l-5,13.1c0,0-10.9-7.1-15.5-6.6l-10.4,2"/>
	<path class="st4" d="M759.7,531.2c0,0,10.7-2.7,11.2-2.5c0.5,0.1,14.7,6.7,14.7,6.7l-0.7,1.9"/>
	<path class="st4" d="M773.4,501.2c0,0,18.7,9.3,19,9.6s2.8,3.4,2.8,3.4l-1.5,2.3"/>
	
		<ellipse transform="matrix(0.4356 -0.9001 0.9001 0.4356 81.6789 1130.0055)" class="st4" cx="942" cy="499.9" rx="11.4" ry="3.1"/>
	<polygon class="st4" points="905.5,476.2 920.7,447.3 917.3,445.4 902.4,473.9 	"/>
	<polygon class="st4" points="892.9,469.4 908.1,440.6 904.7,438.6 889.8,467.1 	"/>
	<path class="st4" d="M904.5,438.1c0,0-1.2-3.7,0-4.9c1.2-1.2,2.5-1.7,3.3-1.7c0.8,0,17.2,9,17.2,9s2.6,2.4,0.6,4.9
		s-5.2,1.4-5.2,1.4L904.5,438.1z"/>
	<circle class="st4" cx="922.5" cy="443.5" r="2.1"/>
	<line class="st4" x1="900.4" y1="473.6" x2="904.2" y2="448"/>
	<polyline class="st4" points="912.1,499.1 908.1,490.9 910.1,489.9 914.3,496.9 918.4,494.5 914.3,488 916.3,486.9 920.5,493 
		924.3,493 	"/>
	<path class="st4" d="M923.1,516.8c0,0-2.4,0.5-3,0.4s-1.4-3.3-1.4-3.3c-2.9-11,17.4-46.1,20.8-46.1c0,0,1.4-0.4,1.7,0
		c0.3,0.4,1.1,1.1,1.1,1.1"/>
	<path class="st4" d="M944,474.9c2.1,0.9,4.2,3.9,4.6,2.1c0.5-1.8,2.7-8.8,5-15.1s0.2-10.5,0-21.3c0-1.7,0.2-3.1-0.4-3.7
		c-2-1.9-1.7-1.5-2.7-2.2c-0.7-0.5-1.4-1.7-1.7-5.1c-0.9-9.7,0-9.5,0.2-14.7c0.2-5.2-5.1-15.2-5.1-15.2l-7.9,13.5v18.6l5,7.9
		l-2,26.5c0,0,0.7-1.7,3.3,1.8C945,471.5,944,474.9,944,474.9z"/>
	<path class="st4" d="M906.7,391.9c-0.9,1.9,0,7.9,0,7.9l6.5-2l-1.7-10.1L906.7,391.9z"/>
	<path class="st4" d="M913.2,387.6c0.8,2.7,1.9,10.1,1.9,10.1s6.1,0.5,5.5,0c-0.5-0.5,0-10.1,0-10.1s-1.2,0.2-2.4-2.3
		c-1.1-2.5-3.2-2.3-3.2-2.3L913.2,387.6z"/>
	<path class="st4" d="M920.7,397.7l4.8,2.8l3.8-12.9l-4.3-4.5c0,0-0.7,0.6-1.5,2.3c-0.8,1.6-2.8,2.3-2.8,2.3L920.7,397.7z"/>
	<path class="st4" d="M926.7,400.9c0,0,3,2.8,5.2,3.4c2.2,0.6,8.6-6.4,8.6-6.4l-10.2-9.9L926.7,400.9z"/>
	<path class="st4" d="M941.9,398l2,1.1c0,0,0-1.9,0.9-3.1c0.9-1.2,1.2-2.3,1.2-2.3s-4-26.7-3.2-31.4c0.8-4.7,0.8-7.9,0.1-8.8
		c-0.7-0.9,0.3-3.5-4.1-6.1c-4.4-2.7-17.3-3.7-19.1-3.5s-11.7,16.3-13.1,19.5s-3,24.8-2.7,26.4c0.2,1.6,1,2.1,1,2.1l7.6-5.5l2.6-4.3
		c0,0,2.1,0.7,2.6,1.1s0.5,4.4,1.8,4s2.6-0.2,3-0.5c0.4-0.4,2.4-4.3,2.4-4.3L941.9,398z"/>
	<path class="st4" d="M903.9,489.6l12.3-5.7l6.3-3.6c0,0,4-23.8,9.6-32.3c5.6-8.5,3.8-8.7,3.8-8.7l-5.6-18.5h-7.8v17.7l-1.8-0.4
		l-1.1-18.3l-5.1-2.3l1.6,18.2l-3.4-1.8l-1.3-17.2l-4.9-1.9l1.1,16.7"/>
	<ellipse class="st4" cx="945.4" cy="435.9" rx="4.2" ry="10"/>
	<polygon class="st4" points="906.7,414.9 911.4,413.4 930.3,420.9 922.5,420.9 	"/>
	<path class="st4" d="M907.9,463.4c0,0,2.1-14.5,3-15.3c0.9-0.9,4.3,0.9,4.3,0.9"/>
	<path class="st4" d="M918.9,450.7c0,0,3.1,0.8,3.6,1.5c0.5,0.7-5,24.6-5,25.4s-10.4-3.5-10.4-3.5"/>
	<line class="st4" x1="906.7" y1="399.7" x2="908.1" y2="414"/>
	<path class="st4" d="M909.7,408.1c-2.1,1.8,0,4.4,0,4.4l20,6.5c0,0-0.9-0.3-1.1-2.2s0.9-2.9,1.6-2.8c0.7,0.1,1.9,1.1,1.9,2
		c0,0.9-0.1,2.5-0.9,3s12.3-19.3,12.3-19.3l-2.3-1.7l-12,16.1L909.7,408.1z"/>
</g>
<g id="Layer_3">
	<linearGradient id="SVGID_1_" gradientUnits="userSpaceOnUse" x1="924.1512" y1="299.6034" x2="1306.4055" y2="299.6034">
		<stop  offset="0" style="stop-color:#0065FF"/>
		<stop  offset="1" style="stop-color:#00FFFF"/>
	</linearGradient>
	<polyline class="st8" points="925,346.1 992,255.2 1306.4,253.5 	"/>
	<linearGradient id="SVGID_2_" gradientUnits="userSpaceOnUse" x1="843.584" y1="708.644" x2="935.3702" y2="708.644">
		<stop  offset="0" style="stop-color:#0065FF"/>
		<stop  offset="1" style="stop-color:#00FFFF"/>
	</linearGradient>
	<polyline class="st9" points="935,811.9 844.6,774.5 845,604.5 	"/>
	<linearGradient id="SVGID_3_" gradientUnits="userSpaceOnUse" x1="242.23" y1="198.5361" x2="537.8234" y2="198.5361">
		<stop  offset="0" style="stop-color:#0065FF"/>
		<stop  offset="1" style="stop-color:#00FFFF"/>
	</linearGradient>
	<polyline class="st10" points="537.1,229.3 485.2,169.3 242.2,168.2 	"/>
	<linearGradient id="SVGID_4_" gradientUnits="userSpaceOnUse" x1="515.5196" y1="260.7317" x2="593.3057" y2="260.7317">
		<stop  offset="0" style="stop-color:#0065FF"/>
		<stop  offset="1" style="stop-color:#00FFFF"/>
	</linearGradient>
	<polygon class="st11" points="573.3,228 535.5,228 516.7,260.7 535.5,293.4 573.3,293.4 592.2,260.7 	"/>
	<linearGradient id="SVGID_5_" gradientUnits="userSpaceOnUse" x1="603.7869" y1="157.5336" x2="681.573" y2="157.5336">
		<stop  offset="0" style="stop-color:#0065FF"/>
		<stop  offset="1" style="stop-color:#00FFFF"/>
	</linearGradient>
	<polygon class="st12" points="661.5,124.9 623.8,124.9 604.9,157.5 623.8,190.2 661.5,190.2 680.4,157.5 	"/>
	<linearGradient id="SVGID_6_" gradientUnits="userSpaceOnUse" x1="697.7694" y1="124.8512" x2="775.5555" y2="124.8512">
		<stop  offset="0" style="stop-color:#0065FF"/>
		<stop  offset="1" style="stop-color:#00FFFF"/>
	</linearGradient>
	<polygon class="st13" points="755.5,92.2 717.8,92.2 698.9,124.9 717.8,157.5 755.5,157.5 774.4,124.9 	"/>
	<linearGradient id="SVGID_7_" gradientUnits="userSpaceOnUse" x1="798.2929" y1="118.4441" x2="876.079" y2="118.4441">
		<stop  offset="0" style="stop-color:#0065FF"/>
		<stop  offset="1" style="stop-color:#00FFFF"/>
	</linearGradient>
	<polygon class="st14" points="856.1,85.8 818.3,85.8 799.4,118.4 818.3,151.1 856.1,151.1 874.9,118.4 	"/>
	<linearGradient id="SVGID_8_" gradientUnits="userSpaceOnUse" x1="890.3604" y1="341.905" x2="968.1465" y2="341.905">
		<stop  offset="0" style="stop-color:#0065FF"/>
		<stop  offset="1" style="stop-color:#00FFFF"/>
	</linearGradient>
	<polygon class="st15" points="948.1,309.2 910.4,309.2 891.5,341.9 910.4,374.6 948.1,374.6 967,341.9 	"/>
	<linearGradient id="SVGID_9_" gradientUnits="userSpaceOnUse" x1="641.0178" y1="83.3256" x2="643.1433" y2="83.3256">
		<stop  offset="0" style="stop-color:#0065FF"/>
		<stop  offset="1" style="stop-color:#00FFFF"/>
	</linearGradient>
	<line class="st16" x1="642" y1="124.9" x2="642.1" y2="41.8"/>
	<linearGradient id="SVGID_10_" gradientUnits="userSpaceOnUse" x1="735.651" y1="53.2901" x2="1040" y2="53.2901">
		<stop  offset="0" style="stop-color:#0065FF"/>
		<stop  offset="1" style="stop-color:#00FFFF"/>
	</linearGradient>
	<polyline class="st17" points="737.5,92.2 736.7,15.4 1040,15.4 	"/>
	<linearGradient id="SVGID_11_" gradientUnits="userSpaceOnUse" x1="874.9243" y1="141.6946" x2="1293.6045" y2="141.6946">
		<stop  offset="0" style="stop-color:#0065FF"/>
		<stop  offset="1" style="stop-color:#00FFFF"/>
	</linearGradient>
	<polyline class="st18" points="874.9,118.4 1093.6,118.4 1136,164.2 1293.6,164.9 	"/>
</g>
</svg>
