<svg xmlns="http://www.w3.org/2000/svg" xmlns:xlink="http://www.w3.org/1999/xlink" viewBox="0 0 949.42 669.6"><defs><style>.cls-1{opacity:0.65;}.cls-10,.cls-11,.cls-12,.cls-13,.cls-2,.cls-3,.cls-4,.cls-5,.cls-6,.cls-7,.cls-8,.cls-9{fill:none;stroke-miterlimit:10;}.cls-2{stroke:#fff;stroke-width:0.75px;}.cls-3{stroke:url(#linear-gradient);}.cls-4{stroke:url(#linear-gradient-2);}.cls-5{stroke:url(#linear-gradient-3);}.cls-6{stroke:url(#linear-gradient-4);}.cls-7{stroke:url(#linear-gradient-5);}.cls-8{stroke:url(#linear-gradient-6);}.cls-9{stroke:url(#linear-gradient-7);}.cls-10{stroke:url(#linear-gradient-8);}.cls-11{stroke:url(#linear-gradient-9);}.cls-12{stroke:url(#linear-gradient-10);}.cls-13{stroke:url(#linear-gradient-11);}</style><linearGradient id="linear-gradient" x1="534.15" y1="581.06" x2="615.07" y2="581.06" gradientUnits="userSpaceOnUse"><stop offset="0" stop-color="#0065ff"/><stop offset="1" stop-color="aqua"/></linearGradient><linearGradient id="linear-gradient-2" x1="632.59" y1="233.15" x2="949.42" y2="233.15" xlink:href="#linear-gradient"/><linearGradient id="linear-gradient-3" x1="0" y1="156.49" x2="262.07" y2="156.49" xlink:href="#linear-gradient"/><linearGradient id="linear-gradient-4" x1="243.01" y1="209.38" x2="311.17" y2="209.38" xlink:href="#linear-gradient"/><linearGradient id="linear-gradient-5" x1="317.41" y1="124.73" x2="385.57" y2="124.73" xlink:href="#linear-gradient"/><linearGradient id="linear-gradient-6" x1="404.77" y1="93.69" x2="472.93" y2="93.69" xlink:href="#linear-gradient"/><linearGradient id="linear-gradient-7" x1="494" y1="88.23" x2="562.16" y2="88.23" xlink:href="#linear-gradient"/><linearGradient id="linear-gradient-8" x1="582.29" y1="286.1" x2="650.45" y2="286.1" xlink:href="#linear-gradient"/><linearGradient id="linear-gradient-9" x1="350.41" y1="50.31" x2="351.55" y2="50.31" xlink:href="#linear-gradient"/><linearGradient id="linear-gradient-10" x1="438.35" y1="32.93" x2="708.1" y2="32.93" xlink:href="#linear-gradient"/><linearGradient id="linear-gradient-11" x1="561.58" y1="108.03" x2="933.19" y2="108.03" xlink:href="#linear-gradient"/></defs><g id="Layer_2" data-name="Layer 2"><g id="Layer_3" data-name="Layer 3"><g class="cls-1"><polygon class="cls-2" points="438.28 297.56 441.83 298.5 443.61 297.56 445.23 294.74 441.13 264.05 476.59 258.63 481.78 289.28 483.56 291.16 485.33 292.1 488 291.16 489.77 288.34 491.43 280.15 488.45 261.59 478.95 251.78 470.06 208.4 468.05 208.71 469.44 222.35 464.92 226.04 441.84 229.81 436.07 227.46 434.23 213.91 431.5 214.2 436.52 258.63 430.3 273.1 432.59 289.91 438.28 297.56"/><polygon class="cls-2" points="441.84 229.53 440.42 214.89 451.07 213.01 452.99 227.99 441.84 229.53"/><polyline class="cls-2" points="440.69 195.94 437.01 196.49 435.38 195.51 431.87 161.17 432.76 159.34 454.19 156.47 455.55 157.44 460.71 191.75 459.77 193.1 456.19 193.63"/><polyline class="cls-2" points="441.08 265.33 442.36 229.72 464.64 226.09 461.32 211.51 451.07 213.01"/><line class="cls-2" x1="476.59" y1="258.63" x2="464.48" y2="225.57"/><path class="cls-2" d="M459.77,211.54,441.61,214a3.6,3.6,0,0,1-4-3.25L437,205.1a3.74,3.74,0,0,1,3.07-4.21l18.16-2.47a3.59,3.59,0,0,1,4,3.26l.69,5.65A3.73,3.73,0,0,1,459.77,211.54Z"/><path class="cls-2" d="M447.93,282a3.59,3.59,0,0,1-3.84-3.19l-1.32-9.28a3.75,3.75,0,0,1,3-4.28L472.54,261a3.58,3.58,0,0,1,4,3.16l1.31,9.28a3.73,3.73,0,0,1-3,4.28"/><polyline class="cls-2" points="445.23 265.42 448.79 290.9 456.85 289.38 455.48 278.96"/><polyline class="cls-2" points="472.85 261.08 476.27 286.58 468.14 287.55 466.65 277.14"/><line class="cls-2" x1="459.24" y1="263.15" x2="461.59" y2="279.87"/><line class="cls-2" x1="455.41" y1="280.84" x2="467.01" y2="279.46"/><polygon class="cls-2" points="465.13 225.57 462.17 198.64 461.43 197.35 460.99 193.74 461.63 192.13 465.13 191.53 466.08 192.42 466.53 196.61 466.15 198 469.06 222.08 465.13 225.57"/><polygon class="cls-2" points="436.07 227.46 432.91 202.65 431.9 201.17 431.5 197.5 432.18 195.7 435.07 195.49 436.16 196.37 436.68 200.56 436.24 201.95 439.98 228.84 436.07 227.46"/><line class="cls-2" x1="444.06" y1="195.34" x2="442.31" y2="195.59"/><polyline class="cls-2" points="442.31 195.59 441.26 195.74 442.64 192.63 453.02 191.27 455.45 193.71 452.87 194.08"/><polygon class="cls-2" points="444.46 200.14 443.93 193.81 452.32 192.73 453.49 198.92 444.46 200.14"/><path class="cls-2" d="M461.78,156.91s4.74,27.1,5.45,29.86,1.83,3.26,1.83,3.26l-1.71,2.14-6.64-3.52L456,156.94l1.29-4.39,4.49,4.36"/><path class="cls-2" d="M461.9,156.47a13.06,13.06,0,0,0,.89-11.45c-2.52-6.33-6.1-20.29-10.22-32.71-1-3-7.5-10.26-20-6.46-5.93,1.8-7.87,4.61-8.87,7-1.79,4.35-2.74,40.36-2.43,41.75a21,21,0,0,0,1.57,5.68,20.67,20.67,0,0,0,2.33,3.26l3.74-8-.68-20.23,2.54-2.51,17.42-2,3.65,2.54,5.5,18.73Z"/><path class="cls-2" d="M467.34,192.37l1.72-2.34,1.81,1.24a63.51,63.51,0,0,1,1.9,19l-2,1.54"/><path class="cls-2" d="M425.37,163.64s2.79,27.4,2.86,30.26-.87,3.68-.87,3.68l2.21,1.53,5.41-5.38-4.05-31.82-2.43-3.81-3.13,5.54"/><path class="cls-2" d="M429.63,199.3l-2.27-1.72L426,199.32a63.53,63.53,0,0,0,3.3,18.75l2.35.87"/><polygon class="cls-2" points="436.29 158.9 434.65 142.32 433.8 142.4 433.31 141.92 432.98 138.76 433.55 137.5 437.77 137.05 438.59 138.09 438.87 140.98 438.52 141.81 437.73 141.91 439.63 158.53 436.29 158.9"/><polygon class="cls-2" points="446.49 157.34 444.51 140.81 443.67 140.91 443.16 140.43 442.77 137.29 443.31 136.01 447.52 135.47 448.36 136.49 448.7 139.37 448.37 140.21 447.58 140.32 449.82 156.89 446.49 157.34"/><line class="cls-2" x1="438.87" y1="140.98" x2="443.16" y2="140.43"/><line class="cls-2" x1="438.59" y1="138.09" x2="442.77" y2="137.29"/><polygon class="cls-2" points="502.53 288.86 505.91 290.34 507.79 289.69 509.8 287.17 510.05 256.38 545.87 256.6 546.71 287.54 548.2 289.67 549.82 290.87 552.59 290.36 554.74 287.87 557.53 280.08 557.18 261.37 549.16 250.24 546.47 206.22 544.43 206.21 543.89 219.84 538.9 222.75 515.56 222.84 510.18 219.62 510.26 206.02 507.52 205.88 506.25 250.32 498.07 263.56 497.98 280.45 502.53 288.86"/><polygon class="cls-2" points="515.6 222.56 516.25 207.96 527.04 207.78 526.83 222.8 515.6 222.56"/><polyline class="cls-2" points="519.17 189.38 515.46 189.34 513.98 188.12 515.33 153.82 516.47 152.16 538.05 152.71 539.27 153.87 539.56 188.4 538.44 189.57 534.82 189.54"/><polyline class="cls-2" points="509.82 257.62 516.08 222.84 538.62 222.76 537.39 207.91 527.04 207.78"/><line class="cls-2" x1="545.87" y1="256.6" x2="538.53" y2="222.22"/><path class="cls-2" d="M535.85,207.69l-18.3-.41a3.67,3.67,0,0,1-3.48-3.82l.12-5.66a3.64,3.64,0,0,1,3.63-3.66l18.3.42a3.65,3.65,0,0,1,3.47,3.82l-.12,5.66A3.63,3.63,0,0,1,535.85,207.69Z"/><path class="cls-2" d="M514.25,275.12a3.67,3.67,0,0,1-3.36-3.74v-9.32a3.65,3.65,0,0,1,3.55-3.74h27.08a3.66,3.66,0,0,1,3.55,3.75v9.32a3.65,3.65,0,0,1-3.55,3.74"/><polyline class="cls-2" points="513.91 258.36 513.86 283.96 522.04 283.73 522.15 273.27"/><polyline class="cls-2" points="541.83 258.42 541.63 284.02 533.46 283.69 533.45 273.24"/><line class="cls-2" x1="528.08" y1="258.32" x2="528.06" y2="275.13"/><line class="cls-2" x1="521.81" y1="275.11" x2="533.47" y2="275.58"/><polygon class="cls-2" points="539.18 222.33 540.03 195.39 539.48 194.02 539.55 190.39 540.42 188.91 543.96 188.88 544.77 189.89 544.63 194.08 544.06 195.38 543.55 219.51 539.18 222.33"/><polygon class="cls-2" points="510.18 219.62 510.53 194.74 509.75 193.13 509.87 189.47 510.79 187.81 513.67 188.05 514.63 189.09 514.55 193.29 513.93 194.58 513.85 221.59 510.18 219.62"/><line class="cls-2" x1="522.58" y1="189.31" x2="520.82" y2="189.28"/><polyline class="cls-2" points="520.82 189.28 519.76 189.26 521.56 186.43 532.02 186.72 534.08 189.5 531.48 189.45"/><polygon class="cls-2" points="522.31 194.1 522.67 187.79 531.12 188.04 531.41 194.31 522.31 194.1"/><path class="cls-2" d="M545.51,154.33s.87,27.37,1.19,30.2,1.35,3.49,1.35,3.49l-2,1.83-6.07-4.5-.21-31.9,1.89-4.11,3.84,5"/><path class="cls-2" d="M545.68,153.92a12.82,12.82,0,0,0,2.49-11.12c-1.6-6.62-3.18-20.89-5.52-33.75-.55-3.07-6-11.25-18.83-9.47-6.12.84-8.43,3.29-9.75,5.51-2.39,4-8.38,39.23-8.27,40.64a21.12,21.12,0,0,0,.76,5.83,21.47,21.47,0,0,0,1.85,3.57l4.82-7.3,2.17-20,2.87-2.07,17.5.79,3.25,3.06,2.8,19.27Z"/><path class="cls-2" d="M546,190l2-2,1.62,1.49a62.9,62.9,0,0,1-.78,18.94l-2.21,1.21"/><path class="cls-2" d="M508.56,155.23s-1.09,27.37-1.43,30.19-1.38,3.48-1.38,3.48l2,1.85,6.1-4.44.46-31.9-1.86-4.13-3.87,4.95"/><path class="cls-2" d="M507.76,190.94l-2-2-1.63,1.48a63,63,0,0,0,.63,19l2.21,1.22"/><polygon class="cls-2" points="520.01 152.28 520.72 135.74 519.87 135.69 519.45 135.13 519.57 131.98 520.31 130.83 524.55 131.05 525.21 132.2 525.08 135.08 524.62 135.84 523.83 135.81 523.37 152.44 520.01 152.28"/><polygon class="cls-2" points="530.32 152.35 530.69 135.8 529.83 135.76 529.4 135.22 529.45 132.07 530.17 130.9 534.41 131.02 535.1 132.15 535.03 135.04 534.58 135.81 533.79 135.8 533.68 152.44 530.32 152.35"/><line class="cls-2" x1="525.08" y1="135.08" x2="529.4" y2="135.22"/><line class="cls-2" x1="525.21" y1="132.2" x2="529.45" y2="132.07"/><polygon class="cls-2" points="378.88 315.09 382.52 315.45 384.16 314.27 385.4 311.28 377.36 282.17 411.79 271.42 420.92 300.34 422.92 301.89 424.8 302.52 427.32 301.2 428.71 298.19 429.29 290 423.93 272.46 413.24 264.42 398.81 223.74 396.86 224.36 400.01 237.37 396.01 241.65 373.63 248.86 367.6 247.47 364.02 234.63 361.36 235.34 372.08 277.62 367.8 292.61 372.25 308.55 378.88 315.09"/><polygon class="cls-2" points="373.59 248.59 370.28 234.63 380.6 231.15 384.43 245.38 373.59 248.59"/><polyline class="cls-2" points="368.09 216.22 364.52 217.32 362.77 216.62 354.85 183.87 355.49 181.96 376.35 175.87 377.83 176.59 387.39 209.05 386.63 210.5 383.15 211.58"/><polyline class="cls-2" points="377.48 283.41 374.13 248.7 395.73 241.73 390.56 228.11 380.6 231.15"/><line class="cls-2" x1="411.79" y1="271.42" x2="395.51" y2="241.26"/><path class="cls-2" d="M389,228.38l-17.67,5.2A3.49,3.49,0,0,1,367,231l-1.41-5.37a3.75,3.75,0,0,1,2.5-4.56l17.67-5.2a3.5,3.5,0,0,1,4.36,2.54l1.41,5.37A3.76,3.76,0,0,1,389,228.38Z"/><path class="cls-2" d="M386.43,298.55a3.49,3.49,0,0,1-4.22-2.49l-2.51-8.79a3.76,3.76,0,0,1,2.4-4.61l26-8.28a3.49,3.49,0,0,1,4.42,2.44l2.5,8.79a3.75,3.75,0,0,1-2.4,4.61"/><polyline class="cls-2" points="381.6 282.86 388.43 307.01 396.22 304.29 393.51 294.4"/><polyline class="cls-2" points="408.41 274.38 415.1 298.58 407.17 300.76 404.35 290.91"/><line class="cls-2" x1="395.18" y1="278.49" x2="399.68" y2="294.34"/><line class="cls-2" x1="393.68" y1="296.23" x2="405" y2="293.11"/><polygon class="cls-2" points="396.15 241.16 389.73 215.5 388.83 214.37 387.93 210.94 388.35 209.27 391.74 208.16 392.79 208.87 393.79 212.86 393.59 214.26 399.59 237.16 396.15 241.16"/><polygon class="cls-2" points="367.6 247.47 361.25 223.91 360.06 222.64 359.19 219.14 359.63 217.29 362.46 216.64 363.66 217.33 364.72 221.31 364.46 222.72 371.65 248.21 367.6 247.47"/><line class="cls-2" x1="371.35" y1="215.11" x2="369.65" y2="215.62"/><polyline class="cls-2" points="369.65 215.62 368.63 215.93 369.6 212.7 379.71 209.77 382.43 211.76 379.93 212.52"/><polygon class="cls-2" points="372.37 219.7 371.03 213.65 379.2 211.3 381.17 217.12 372.37 219.7"/><path class="cls-2" d="M383.94,175.12s8.2,25.53,9.26,28.1,2.24,2.88,2.24,2.88L394,208.43l-7-2.38-8.78-30,.7-4.46,5,3.54"/><path class="cls-2" d="M384,174.67a12.61,12.61,0,0,0-.61-11.23c-3.31-5.76-8.67-18.73-14.36-30.14-1.37-2.73-8.77-8.78-20.62-3.17-5.65,2.67-7.2,5.68-7.88,8.18-1.22,4.49,2.51,39.55,3,40.84a20.09,20.09,0,0,0,2.29,5.27,20,20,0,0,0,2.74,2.8l2.66-8.36-3.3-19.51,2.2-2.83,17-4.61,3.94,1.9,7.87,17.3Z"/><path class="cls-2" d="M394,208.63l1.4-2.53,1.95.91a60.21,60.21,0,0,1,4.35,18.1l-1.8,1.81"/><path class="cls-2" d="M348.73,187.27s6.31,26.13,6.75,28.89-.39,3.71-.39,3.71l2.39,1.13,4.66-6.05L354,184.74l-2.9-3.33-2.38,5.86"/><path class="cls-2" d="M357.57,221.18l-2.48-1.31-1.16,1.89a59.85,59.85,0,0,0,5.7,17.67l2.44.48"/><polygon class="cls-2" points="358.93 180.98 355.16 165.17 354.33 165.38 353.77 164.98 353.04 161.98 353.44 160.66 357.57 159.58 358.51 160.46 359.17 163.22 358.92 164.08 358.16 164.29 362.19 180.11 358.93 180.98"/><polygon class="cls-2" points="368.83 177.9 364.73 162.18 363.91 162.41 363.35 162.02 362.55 159.03 362.92 157.71 367.03 156.53 367.99 157.39 368.7 160.13 368.48 161 367.71 161.23 372.08 176.95 368.83 177.9"/><line class="cls-2" x1="359.17" y1="163.22" x2="363.35" y2="162.02"/><line class="cls-2" x1="358.51" y1="160.46" x2="362.55" y2="159.04"/><polygon class="cls-2" points="337.2 348.9 340.55 348.46 341.77 347.18 342.26 344.55 328.83 322.92 357.51 307.46 371.86 328.71 373.99 329.55 375.82 329.68 377.8 328.12 378.41 325.44 377.19 318.78 368.64 305.86 357.32 301.58 335.7 271.99 334.07 272.87 339.67 282.63 336.98 286.84 318.39 297.08 312.69 297.18 306.73 287.64 304.49 288.74 323.12 320.35 322.46 333.17 329.85 345 337.2 348.9"/><polygon class="cls-2" points="318.3 296.87 312.36 286.38 320.9 281.55 327.37 292.14 318.3 296.87"/><polyline class="cls-2" points="306.48 272.13 303.5 273.72 301.78 273.51 287.69 248.95 287.86 247.3 305.32 238.26 306.81 238.55 322.31 262.55 321.94 263.86 319.03 265.41"/><polyline class="cls-2" points="329.21 323.89 318.81 296.85 336.76 286.97 329.21 277.13 320.9 281.55"/><line class="cls-2" x1="357.51" y1="307.46" x2="336.45" y2="286.63"/><path class="cls-2" d="M327.88,277.65l-14.78,7.69a3.41,3.41,0,0,1-4.46-1.16l-2.41-4A2.94,2.94,0,0,1,307.5,276l14.79-7.69a3.42,3.42,0,0,1,4.46,1.16l2.41,4A2.92,2.92,0,0,1,327.88,277.65Z"/><path class="cls-2" d="M340.47,334.19a3.41,3.41,0,0,1-4.32-1.15L332,326.52a2.92,2.92,0,0,1,1.17-4.16l21.61-11.81a3.43,3.43,0,0,1,4.49,1.07l4.12,6.52a2.93,2.93,0,0,1-1.18,4.16"/><polyline class="cls-2" points="332.8 322.62 344.07 340.54 350.49 336.8 345.96 329.45"/><polyline class="cls-2" points="355.09 310.49 366.26 328.47 359.59 331.81 354.96 324.5"/><line class="cls-2" x1="344.08" y1="316.42" x2="351.49" y2="328.17"/><line class="cls-2" x1="346.5" y1="330.88" x2="356.01" y2="326.12"/><polygon class="cls-2" points="337.01 286.43 325.78 267.23 324.73 266.51 323.19 263.95 323.22 262.53 326.03 260.97 327.13 261.32 328.87 264.31 328.99 265.47 339.25 282.55 337.01 286.43"/><polygon class="cls-2" points="312.69 297.18 301.96 279.64 300.63 278.86 299.1 276.24 299.1 274.68 301.51 273.59 302.73 273.9 304.53 276.87 304.6 278.05 316.48 296.96 312.69 297.18"/><line class="cls-2" x1="309.17" y1="270.59" x2="307.75" y2="271.34"/><polyline class="cls-2" points="307.75 271.34 306.9 271.79 307.08 269.02 315.55 264.66 318.43 265.71 316.33 266.81"/><polygon class="cls-2" points="311.07 274.05 308.57 269.49 315.42 265.98 318.42 270.23 311.07 274.05"/><path class="cls-2" d="M312,236.15s12.81,18.75,14.31,20.58,2.62,1.85,2.62,1.85l-.78,2.15-6.82-.5L307,238l-.31-3.69,5.26,1.81"/><path class="cls-2" d="M311.94,235.78a9.45,9.45,0,0,0-2.93-8.84c-4.2-3.93-11.78-13.22-19.32-21.19-1.81-1.9-9.75-5.25-19.22,1.59-4.5,3.26-5.26,6-5.34,8.11-.14,3.83,10.67,31.07,11.39,32a16.42,16.42,0,0,0,3.17,3.75,19.09,19.09,0,0,0,3.06,1.68l.61-7.2-7.11-14.92,1.38-2.69L291.94,221l3.94.73L306.64,234Z"/><path class="cls-2" d="M328.19,260.88l.72-2.3,1.95.34a47.3,47.3,0,0,1,7.76,13.57l-1.23,1.81"/><path class="cls-2" d="M282.91,252.89s11.24,19.6,12.22,21.72.44,3,.44,3l2.39.43,2.9-5.76-13.74-22.5-3.31-2.07-.9,5.15"/><path class="cls-2" d="M298.07,278.19l-2.5-.55-.65,1.75a47.8,47.8,0,0,0,8.88,13l2.3-.11"/><polygon class="cls-2" points="290.75 245.84 284 233.97 283.29 234.3 282.71 234.09 281.41 231.84 281.5 230.71 284.97 229.02 286.01 229.53 287.18 231.6 287.15 232.34 286.5 232.66 293.5 244.48 290.75 245.84"/><polygon class="cls-2" points="299 241.39 291.97 229.66 291.27 230.01 290.69 229.81 289.33 227.59 289.39 226.46 292.83 224.7 293.88 225.19 295.1 227.24 295.08 227.97 294.45 228.31 301.71 239.98 299 241.39"/><line class="cls-2" x1="287.18" y1="231.6" x2="290.69" y2="229.82"/><line class="cls-2" x1="286.01" y1="229.53" x2="289.33" y2="227.59"/><ellipse class="cls-2" cx="557.53" cy="295.82" rx="6.38" ry="6.12"/><polyline class="cls-2" points="562.78 298.9 582.87 389.43 572.58 384.38 554.23 300.63"/><line class="cls-2" x1="562.39" y1="298.98" x2="562.78" y2="298.91"/><path class="cls-2" d="M347.61,347.53l33.62-18.22a2.65,2.65,0,0,1,2.92,1.17c1.15,1.72,6.79,26.1,6.57,27.71s-43.1,23.59-44,23.44-5.87-28.22-4.49-29.92S347.61,347.53,347.61,347.53Z"/><path class="cls-2" d="M393.68,357.87s-7.95-25.72-7.81-30,60.49-25,76.52-27.83,34.73-.44,43.79-.41S480.76,356,480.76,356,388.5,394,381.45,391.92a71.67,71.67,0,0,1-12.9-5.39s-17.1,8.13-18.33,5.89-3-4.1-2.33-6.76S392.1,361.54,393,360.83,393.68,357.87,393.68,357.87Z"/><path class="cls-2" d="M567.85,383.3c1.85-3.18-4.06-39.48-11.51-41S509,390.3,513.41,393,567.85,383.3,567.85,383.3Z"/><path class="cls-2" d="M553.74,338.08c.9-2.56-1.32-4.83-1.32-4.83s-28.16,3.12-30.51,4.83,3,25.47,5.13,26.44S553.74,338.08,553.74,338.08Z"/><path class="cls-2" d="M511.84,334.29c1.17,2.26,44.4-2.87,44.1-4.71s-2.49-23.89-4.06-25.83-21-8.61-22.81-7.59S511,331.4,511,332.23A4,4,0,0,0,511.84,334.29Z"/><ellipse class="cls-2" cx="516.31" cy="355.93" rx="2.69" ry="2.58"/><path class="cls-2" d="M393.22,396c1.14-2.85,85.13-37.5,88.44-36.64s2.94,4.49,2.63,6.62-27.07,55.43-27.07,55.43l7.63,7.2-25.12,50.87S402.09,464.5,401,463.08,393.22,396,393.22,396Z"/><path class="cls-2" d="M358.69,405.56s20.85-6.85,22.4-7.32,8.78,2.75,9.17,3.93S398.38,460,398.38,460s2.37,7.74,5,8.38,15,4.39,15,4.39L413,484.92l-32.33-16.54Z"/><path class="cls-2" d="M602.42,426.09c-2.58-9.4,15.47-39.28,18.44-39.22s6.3,16.72,6.52,18.38-7.15,15.79-9.52,17.66c-1.33,1-12.8,4.75-13.94,4.47A2.2,2.2,0,0,1,602.42,426.09Z"/><path class="cls-2" d="M351.11,394.05c1.06-.43,4.75-.21,4.75-.21l13.93-5.16s1.42.26,1.69,1.2-.32,8.94-.49,9.28-14,5.33-14.83,4.65S351.11,394.05,351.11,394.05Z"/><polyline class="cls-2" points="563.91 394.56 570.74 383.41 589.74 393.52 591.69 394.56 586.32 404.72"/><line class="cls-2" x1="583.64" y1="405.32" x2="589.74" y2="393.52"/><path class="cls-2" d="M492.28,367.78s6.75-2.59,9.94-.89,8.73,3.92,8.73,3.92a8.87,8.87,0,0,1,3,2.89c.71,1.53,2.43,5.11,2.37,6.81s-6.68,19.93-8.61,20.44-5.66,2.21-6.54,1.53-4.26-5.11-7.82-6.47-10.65-3.2-12.38-2.08C480.3,394.36,492.28,367.78,492.28,367.78Z"/><path class="cls-2" d="M516.31,296.51l-3.52,8.69-6.61,2.8-7.55,16.44,2.7,7.94-8.78,3.35-3.72,6.56s12.38-5.05,13-4.64-.48-.16.59.41,5.16,12.14,5.3,13.16.62,2-1.4,2.5-20.95-5.43-20.95-5.43l-2.78,4.7s10.12,2.21,10.12,3.46-.59,1-1.3,1.47-7.67,2.59-7.67,2.59l2.47,5-26.37,58.3,5.3,4.13c9.23-21,19.64-44.57,28.88-65.61l14.2-4.65s5.51,3.12,8.11,3.06,4.37-1.3,4.73-2.33,1.18-2.61.77-3.8a8.3,8.3,0,0,0-1.78-2.5l-4.5-2.27-7.21-18.05,15-32.24"/><path class="cls-2" d="M523,299.45a5.65,5.65,0,0,0,4.22-5.39,5.85,5.85,0,0,0-11.68,0,5.47,5.47,0,0,0,.84,2.91"/><ellipse class="cls-2" cx="521.19" cy="294.08" rx="3.58" ry="3.44"/><ellipse class="cls-2" cx="555.95" cy="334.53" rx="6.38" ry="6.12"/><path class="cls-2" d="M413.64,484.42S418.26,473.2,419,473s15,5.83,15.58,6.47-4,11.53-4.54,12.08-15.67-5.58-15.95-6A5.65,5.65,0,0,1,413.64,484.42Z"/><path class="cls-2" d="M451,456.6s15.87,6.33,18,9.73a30.53,30.53,0,0,1,3.2,8.18s1.78,3.06,3.55,3.4,5.86-4.7,6-9.7-3.38-7.89-5.68-11.61-19.74-10.88-19.74-10.88Z"/><path class="cls-2" d="M497.49,418.55a24,24,0,0,1-1.63-2.35c-2.31-3.72-19.74-10.88-19.74-10.88l-5.37,10.88s15.88,6.33,18,9.74a5.63,5.63,0,0,1,.6,1"/><path class="cls-2" d="M464.58,429.12a19.65,19.65,0,0,1,6.71-.45c4.49.45,14.48,5.81,14.48,5.81l-4.44,11.13s-9.64-6.06-13.75-5.6l-9.21,1.69"/><path class="cls-2" d="M459.27,439.65s9.47-2.27,9.94-2.16,13,5.67,13,5.67l-.58,1.59"/><path class="cls-2" d="M471.48,414.14s16.58,7.92,16.85,8.18,2.52,2.86,2.52,2.86l-1.36,2"/><ellipse class="cls-2" cx="621.08" cy="412.98" rx="9.75" ry="2.7" transform="translate(-28.39 779.7) rotate(-63.07)"/><polygon class="cls-2" points="588.75 392.81 602.17 368.25 599.21 366.57 585.96 390.84 588.75 392.81"/><polygon class="cls-2" points="577.57 387.06 590.98 362.5 588.02 360.82 574.77 385.1 577.57 387.06"/><path class="cls-2" d="M587.79,360.43s-1.1-3.13,0-4.15a4.75,4.75,0,0,1,3-1.45c.71,0,15.27,7.66,15.27,7.66s2.31,2.05.53,4.17-4.61,1.19-4.61,1.19Z"/><ellipse class="cls-2" cx="603.79" cy="364.99" rx="1.85" ry="1.78"/><line class="cls-2" x1="584.2" y1="390.57" x2="587.52" y2="368.83"/><polyline class="cls-2" points="594.53 412.31 590.98 405.3 592.76 404.45 596.55 410.47 600.15 408.38 596.55 402.89 598.26 401.95 602.05 407.13 605.36 407.13"/><path class="cls-2" d="M604.29,427.38a16,16,0,0,1-2.67.35c-.54-.08-1.27-2.8-1.27-2.8-2.59-9.41,15.47-39.28,18.44-39.22,0,0,1.21-.34,1.53,0s1,1,1,1"/><path class="cls-2" d="M622.9,391.68c1.87.81,3.69,3.31,4.09,1.76s2.42-7.48,4.44-12.82.2-9,0-18.17c0-1.47.16-2.64-.36-3.11a11.89,11.89,0,0,0-2.38-1.86c-.64-.44-1.22-1.45-1.5-4.31-.8-8.25,0-8.09.21-12.52s-4.5-12.94-4.5-12.94l-7,11.51V355l4.41,6.69-1.81,22.56s.62-1.43,2.94,1.56A6.83,6.83,0,0,1,622.9,391.68Z"/><path class="cls-2" d="M589.74,321c-.83,1.59,0,6.68,0,6.68l5.8-1.69-1.48-8.62Z"/><path class="cls-2" d="M595.54,317.4c.71,2.27,1.72,8.62,1.72,8.62s5.39.46,4.91,0,0-8.62,0-8.62-1.1.2-2.1-1.95a2.91,2.91,0,0,0-2.84-1.91Z"/><path class="cls-2" d="M602.17,326l4.25,2.38,3.38-11L606,313.53a7.08,7.08,0,0,0-1.33,1.92,4.69,4.69,0,0,1-2.45,1.95Z"/><path class="cls-2" d="M607.49,328.74s2.66,2.39,4.62,2.9,7.63-5.42,7.63-5.42l-9-8.46Z"/><path class="cls-2" d="M621,326.22l1.78.94a4.76,4.76,0,0,1,.82-2.61,5.66,5.66,0,0,0,1.07-2s-3.55-22.76-2.84-26.73.71-6.69.12-7.49.23-2.95-3.67-5.22-15.39-3.18-16.92-2.95-10.42,13.85-11.6,16.57-2.63,21.12-2.44,22.48a2.33,2.33,0,0,0,.9,1.76l6.75-4.71,2.31-3.63a12.79,12.79,0,0,1,2.3.9c.47.35.4,3.75,1.56,3.41s2.34-.14,2.67-.45,2.18-3.64,2.18-3.64Z"/><path class="cls-2" d="M587.28,404.24l10.89-4.82,5.62-3.07s3.52-20.26,8.49-27.52,3.38-7.39,3.38-7.39l-5-15.71h-6.9v15.09l-1.62-.34-.95-15.61-4.5-1.93,1.45,15.48-3-1.52-1.12-14.61-4.32-1.64,1,14.18"/><ellipse class="cls-2" cx="624.14" cy="358.5" rx="3.73" ry="8.52"/><polygon class="cls-2" points="589.74 340.65 593.91 339.39 610.69 345.73 603.79 345.73 589.74 340.65"/><path class="cls-2" d="M590.84,381.9s1.83-12.32,2.63-13.07,3.79.79,3.79.79"/><path class="cls-2" d="M600.58,371.15s2.8.72,3.21,1.3-4.47,20.95-4.47,21.62-9.23-2.94-9.23-2.94"/><line class="cls-2" x1="589.74" y1="327.71" x2="590.98" y2="339.9"/><path class="cls-2" d="M592.45,334.85c-1.82,1.58,0,3.77,0,3.77l17.79,5.54s-.8-.24-1-1.87.81-2.47,1.42-2.39,1.68.94,1.68,1.7-.09,2.15-.8,2.56,10.92-16.45,10.92-16.45l-2.08-1.49L609.8,339.9Z"/><path class="cls-2" d="M477.48,456.87l18.85,26.49s19.92.42,27.9,3,19.72,18.36,23,19.22,46-39.73,52.24-48.7,17.32-28.75,19.15-31.18c1.2-1.58-1-2.87-1-2.87s-11.14,8.78-20.34,3.3c-9.36-5.57-6.23-11.53-7.57-15.8s-3.33-5.6-3.33-5.6-4.68,3-9.13.9-13.81-8-13.81-8-.27-1.79,1.33-4.94c1.68-3.31-40.3,8.23-46.42,11.22s-22.52,14.1-28.12,22.21S477.48,456.87,477.48,456.87Z"/></g><polyline class="cls-3" points="614.89 669.14 534.65 637.31 534.99 492.52"/><polyline class="cls-4" points="632.99 258.27 670.36 209.69 949.42 208.23"/><polyline class="cls-5" points="261.69 182.59 215.7 131.52 0 130.55"/><polygon class="cls-6" points="293.84 181.55 260.34 181.55 243.59 209.38 260.34 237.2 293.84 237.2 310.59 209.38 293.84 181.55"/><polygon class="cls-7" points="368.24 96.9 334.75 96.9 318 124.72 334.75 152.55 368.24 152.55 384.99 124.72 368.24 96.9"/><polygon class="cls-8" points="455.6 65.86 422.11 65.86 405.36 93.69 422.11 121.51 455.6 121.51 472.35 93.69 455.6 65.86"/><polygon class="cls-9" points="544.83 60.41 511.33 60.41 494.58 88.23 511.33 116.06 544.83 116.06 561.58 88.23 544.83 60.41"/><polygon class="cls-10" points="633.12 258.27 599.62 258.27 582.87 286.1 599.62 313.93 633.12 313.93 649.87 286.1 633.12 258.27"/><line class="cls-11" x1="350.91" y1="96.9" x2="351.05" y2="3.71"/><polyline class="cls-12" points="439.63 65.86 438.86 0.5 708.1 0.5"/><polyline class="cls-13" points="561.58 88.23 755.67 88.23 793.3 127.23 933.19 127.82"/></g></g></svg>